<svg width="414" height="20" viewBox="0 0 414 20" fill="none" xmlns="http://www.w3.org/2000/svg">
<path d="M3.42188 10.1818C3.42188 9.56061 3.57339 8.99432 3.87642 8.48295C4.17945 7.97159 4.58665 7.56439 5.09801 7.26136C5.60938 6.95833 6.17566 6.80682 6.79688 6.80682C7.33475 6.80682 7.83097 6.92235 8.28551 7.15341C8.74385 7.38447 9.12263 7.70076 9.42188 8.10227C9.72112 8.5 9.90672 8.95076 9.97869 9.45455H8.60369C8.52794 9.06439 8.31771 8.74621 7.97301 8.5C7.62831 8.25 7.23627 8.125 6.79688 8.125C6.41809 8.125 6.07339 8.2178 5.76278 8.40341C5.45218 8.58902 5.20407 8.83712 5.01847 9.14773C4.83286 9.45833 4.74006 9.80303 4.74006 10.1818C4.74006 10.5606 4.83286 10.9053 5.01847 11.2159C5.20407 11.5265 5.45218 11.7746 5.76278 11.9602C6.07339 12.1458 6.41809 12.2386 6.79688 12.2386C7.23627 12.2386 7.60748 12.1155 7.91051 11.8693C8.21733 11.6193 8.41051 11.2992 8.49006 10.9091H9.86506C9.79309 11.4129 9.61695 11.8655 9.33665 12.267C9.05634 12.6648 8.6965 12.9792 8.2571 13.2102C7.8215 13.4413 7.33475 13.5568 6.79688 13.5568C6.17566 13.5568 5.60938 13.4053 5.09801 13.1023C4.58665 12.7992 4.17945 12.392 3.87642 11.8807C3.57339 11.3693 3.42188 10.803 3.42188 10.1818ZM6.74006 16.1818C5.9143 16.1818 5.13778 16.0265 4.41051 15.7159C3.68703 15.4053 3.04877 14.9754 2.49574 14.4261C1.9465 13.8731 1.51468 13.2348 1.20028 12.5114C0.889678 11.7879 0.736269 11.0114 0.740057 10.1818C0.743845 9.35227 0.901042 8.57576 1.21165 7.85227C1.52604 7.12879 1.95786 6.49242 2.5071 5.94318C3.05634 5.39015 3.69271 4.95833 4.41619 4.64773C5.13968 4.33712 5.9143 4.18182 6.74006 4.18182C7.5696 4.18182 8.34612 4.33712 9.0696 4.64773C9.79688 4.95833 10.4332 5.39015 10.9787 5.94318C11.5279 6.49242 11.9579 7.12879 12.2685 7.85227C12.5791 8.57576 12.7363 9.35227 12.7401 10.1818C12.7438 11.0114 12.5904 11.7879 12.2798 12.5114C11.9692 13.2348 11.5393 13.8731 10.9901 14.4261C10.4408 14.9754 9.80256 15.4053 9.07528 15.7159C8.34801 16.0265 7.5696 16.1818 6.74006 16.1818ZM6.74006 14.8636C7.38778 14.8636 7.99574 14.7424 8.56392 14.5C9.1321 14.2576 9.63021 13.9223 10.0582 13.4943C10.4863 13.0663 10.8215 12.5701 11.0639 12.0057C11.3063 11.4375 11.4257 10.8314 11.4219 10.1875C11.4181 9.53977 11.295 8.93182 11.0526 8.36364C10.8101 7.79545 10.4749 7.29735 10.0469 6.86932C9.61884 6.44129 9.12263 6.10606 8.55824 5.86364C7.99384 5.62121 7.38778 5.5 6.74006 5.5C6.09612 5.5 5.49195 5.62121 4.92756 5.86364C4.36316 6.10606 3.86695 6.44318 3.43892 6.875C3.01089 7.30303 2.67377 7.80114 2.42756 8.36932C2.18513 8.93371 2.06203 9.53977 2.05824 10.1875C2.05445 10.8277 2.17377 11.4318 2.41619 12C2.65862 12.5644 2.99384 13.0606 3.42188 13.4886C3.85369 13.9167 4.3518 14.2538 4.91619 14.5C5.48438 14.7424 6.09233 14.8636 6.74006 14.8636ZM29.3352 8H27.9261C27.8428 7.5947 27.697 7.23864 27.4886 6.93182C27.2841 6.625 27.0341 6.36742 26.7386 6.15909C26.447 5.94697 26.1231 5.78788 25.767 5.68182C25.411 5.57576 25.0398 5.52273 24.6534 5.52273C23.9489 5.52273 23.3106 5.70076 22.7386 6.05682C22.1705 6.41288 21.7178 6.9375 21.3807 7.63068C21.0473 8.32386 20.8807 9.17424 20.8807 10.1818C20.8807 11.1894 21.0473 12.0398 21.3807 12.733C21.7178 13.4261 22.1705 13.9508 22.7386 14.3068C23.3106 14.6629 23.9489 14.8409 24.6534 14.8409C25.0398 14.8409 25.411 14.7879 25.767 14.6818C26.1231 14.5758 26.447 14.4186 26.7386 14.2102C27.0341 13.9981 27.2841 13.7386 27.4886 13.4318C27.697 13.1212 27.8428 12.7652 27.9261 12.3636H29.3352C29.2292 12.9583 29.036 13.4905 28.7557 13.9602C28.4754 14.4299 28.1269 14.8295 27.7102 15.1591C27.2936 15.4848 26.8258 15.733 26.3068 15.9034C25.7917 16.0739 25.2405 16.1591 24.6534 16.1591C23.661 16.1591 22.7784 15.9167 22.0057 15.4318C21.233 14.947 20.625 14.2576 20.1818 13.3636C19.7386 12.4697 19.517 11.4091 19.517 10.1818C19.517 8.95455 19.7386 7.89394 20.1818 7C20.625 6.10606 21.233 5.41667 22.0057 4.93182C22.7784 4.44697 23.661 4.20455 24.6534 4.20455C25.2405 4.20455 25.7917 4.28977 26.3068 4.46023C26.8258 4.63068 27.2936 4.88068 27.7102 5.21023C28.1269 5.53598 28.4754 5.93371 28.7557 6.40341C29.036 6.86932 29.2292 7.40151 29.3352 8ZM34.9759 16.1818C34.188 16.1818 33.4967 15.9943 32.902 15.6193C32.3111 15.2443 31.849 14.7197 31.5156 14.0455C31.1861 13.3712 31.0213 12.5833 31.0213 11.6818C31.0213 10.7727 31.1861 9.97917 31.5156 9.30114C31.849 8.62311 32.3111 8.09659 32.902 7.72159C33.4967 7.34659 34.188 7.15909 34.9759 7.15909C35.7637 7.15909 36.4531 7.34659 37.044 7.72159C37.6387 8.09659 38.1009 8.62311 38.4304 9.30114C38.7637 9.97917 38.9304 10.7727 38.9304 11.6818C38.9304 12.5833 38.7637 13.3712 38.4304 14.0455C38.1009 14.7197 37.6387 15.2443 37.044 15.6193C36.4531 15.9943 35.7637 16.1818 34.9759 16.1818ZM34.9759 14.9773C35.5743 14.9773 36.0668 14.8239 36.4531 14.517C36.8395 14.2102 37.1255 13.8068 37.3111 13.3068C37.4967 12.8068 37.5895 12.2652 37.5895 11.6818C37.5895 11.0985 37.4967 10.5549 37.3111 10.0511C37.1255 9.54735 36.8395 9.14015 36.4531 8.82955C36.0668 8.51894 35.5743 8.36364 34.9759 8.36364C34.3774 8.36364 33.8849 8.51894 33.4986 8.82955C33.1122 9.14015 32.8262 9.54735 32.6406 10.0511C32.455 10.5549 32.3622 11.0985 32.3622 11.6818C32.3622 12.2652 32.455 12.8068 32.6406 13.3068C32.8262 13.8068 33.1122 14.2102 33.4986 14.517C33.8849 14.8239 34.3774 14.9773 34.9759 14.9773ZM40.9773 19.2727V7.27273H42.2727V8.65909H42.4318C42.5303 8.50758 42.6667 8.31439 42.8409 8.07955C43.0189 7.84091 43.2727 7.62879 43.6023 7.44318C43.9356 7.25379 44.3864 7.15909 44.9545 7.15909C45.6894 7.15909 46.3371 7.3428 46.8977 7.71023C47.4583 8.07765 47.8958 8.59848 48.2102 9.27273C48.5246 9.94697 48.6818 10.7424 48.6818 11.6591C48.6818 12.5833 48.5246 13.3845 48.2102 14.0625C47.8958 14.7367 47.4602 15.2595 46.9034 15.6307C46.3466 15.9981 45.7045 16.1818 44.9773 16.1818C44.4167 16.1818 43.9678 16.089 43.6307 15.9034C43.2936 15.714 43.0341 15.5 42.8523 15.2614C42.6705 15.0189 42.5303 14.8182 42.4318 14.6591H42.3182V19.2727H40.9773ZM42.2955 11.6364C42.2955 12.2955 42.392 12.8769 42.5852 13.3807C42.7784 13.8807 43.0606 14.2727 43.4318 14.5568C43.803 14.8371 44.2576 14.9773 44.7955 14.9773C45.3561 14.9773 45.8239 14.8295 46.1989 14.5341C46.5777 14.2348 46.8617 13.8333 47.0511 13.3295C47.2443 12.822 47.3409 12.2576 47.3409 11.6364C47.3409 11.0227 47.2462 10.4697 47.0568 9.97727C46.8712 9.48106 46.589 9.08902 46.2102 8.80114C45.8352 8.50947 45.3636 8.36364 44.7955 8.36364C44.25 8.36364 43.7917 8.50189 43.4205 8.77841C43.0492 9.05114 42.7689 9.43371 42.5795 9.92614C42.3902 10.4148 42.2955 10.9848 42.2955 11.6364ZM51.2784 19.2727C51.0511 19.2727 50.8485 19.2538 50.6705 19.2159C50.4924 19.1818 50.3693 19.1477 50.3011 19.1136L50.642 17.9318C50.9678 18.0152 51.2557 18.0455 51.5057 18.0227C51.7557 18 51.9773 17.8883 52.1705 17.6875C52.3674 17.4905 52.5473 17.1705 52.7102 16.7273L52.9602 16.0455L49.733 7.27273H51.1875L53.5966 14.2273H53.6875L56.0966 7.27273H57.5511L53.8466 17.2727C53.6799 17.7235 53.4735 18.0966 53.2273 18.392C52.9811 18.6913 52.6951 18.9129 52.3693 19.0568C52.0473 19.2008 51.6837 19.2727 51.2784 19.2727ZM59.321 16V7.27273H60.6165V8.59091H60.7074C60.8665 8.15909 61.1544 7.80871 61.571 7.53977C61.9877 7.27083 62.4574 7.13636 62.9801 7.13636C63.0786 7.13636 63.2017 7.13826 63.3494 7.14205C63.4972 7.14583 63.6089 7.15152 63.6847 7.15909V8.52273C63.6392 8.51136 63.535 8.49432 63.3722 8.47159C63.2131 8.44508 63.0445 8.43182 62.8665 8.43182C62.4422 8.43182 62.0634 8.52083 61.7301 8.69886C61.4006 8.87311 61.1392 9.11553 60.946 9.42614C60.7566 9.73295 60.6619 10.0833 60.6619 10.4773V16H59.321ZM65.2741 16V7.27273H66.6151V16H65.2741ZM65.956 5.81818C65.6946 5.81818 65.4692 5.72917 65.2798 5.55114C65.0942 5.37311 65.0014 5.15909 65.0014 4.90909C65.0014 4.65909 65.0942 4.44508 65.2798 4.26705C65.4692 4.08902 65.6946 4 65.956 4C66.2173 4 66.4408 4.08902 66.6264 4.26705C66.8158 4.44508 66.9105 4.65909 66.9105 4.90909C66.9105 5.15909 66.8158 5.37311 66.6264 5.55114C66.4408 5.72917 66.2173 5.81818 65.956 5.81818ZM72.5938 19.4545C71.946 19.4545 71.3892 19.3712 70.9233 19.2045C70.4574 19.0417 70.0691 18.8258 69.7585 18.5568C69.4517 18.2917 69.2074 18.0076 69.0256 17.7045L70.0938 16.9545C70.215 17.1136 70.3684 17.2955 70.554 17.5C70.7396 17.7083 70.9934 17.8883 71.3153 18.0398C71.6411 18.1951 72.0672 18.2727 72.5938 18.2727C73.2983 18.2727 73.8797 18.1023 74.3381 17.7614C74.7964 17.4205 75.0256 16.8864 75.0256 16.1591V14.3864H74.9119C74.8134 14.5455 74.6733 14.7424 74.4915 14.9773C74.3134 15.2083 74.0559 15.4148 73.7188 15.5966C73.3854 15.7746 72.9347 15.8636 72.3665 15.8636C71.6619 15.8636 71.0294 15.697 70.4688 15.3636C69.9119 15.0303 69.4706 14.5455 69.1449 13.9091C68.8229 13.2727 68.6619 12.5 68.6619 11.5909C68.6619 10.697 68.8191 9.91856 69.1335 9.25568C69.4479 8.58901 69.8854 8.07386 70.446 7.71023C71.0066 7.3428 71.6544 7.15909 72.3892 7.15909C72.9574 7.15909 73.4081 7.25379 73.7415 7.44318C74.0786 7.62879 74.3362 7.84091 74.5142 8.07955C74.696 8.31439 74.8362 8.50758 74.9347 8.65909H75.071V7.27273H76.3665V16.25C76.3665 17 76.196 17.6098 75.8551 18.0795C75.518 18.553 75.0634 18.8996 74.4915 19.1193C73.9233 19.3428 73.2907 19.4545 72.5938 19.4545ZM72.5483 14.6591C73.0862 14.6591 73.5407 14.536 73.9119 14.2898C74.2831 14.0436 74.5653 13.6894 74.7585 13.2273C74.9517 12.7652 75.0483 12.2121 75.0483 11.5682C75.0483 10.9394 74.9536 10.3845 74.7642 9.90341C74.5748 9.42235 74.2945 9.04545 73.9233 8.77273C73.5521 8.5 73.0938 8.36364 72.5483 8.36364C71.9801 8.36364 71.5066 8.50758 71.1278 8.79545C70.7528 9.08333 70.4706 9.4697 70.2812 9.95455C70.0956 10.4394 70.0028 10.9773 70.0028 11.5682C70.0028 12.1742 70.0975 12.7102 70.2869 13.1761C70.4801 13.6383 70.7642 14.0019 71.1392 14.267C71.518 14.5284 71.9877 14.6591 72.5483 14.6591ZM80.1619 10.75V16H78.821V4.36364H80.1619V8.63636H80.2756C80.4801 8.18561 80.7869 7.82765 81.196 7.5625C81.6089 7.29356 82.1581 7.15909 82.8438 7.15909C83.4384 7.15909 83.9593 7.27841 84.4062 7.51705C84.8532 7.75189 85.1998 8.11364 85.446 8.60227C85.696 9.08712 85.821 9.70455 85.821 10.4545V16H84.4801V10.5455C84.4801 9.85227 84.3002 9.31629 83.9403 8.9375C83.5843 8.55492 83.09 8.36364 82.4574 8.36364C82.018 8.36364 81.6241 8.45644 81.2756 8.64205C80.9309 8.82765 80.6581 9.09848 80.4574 9.45455C80.2604 9.81061 80.1619 10.2424 80.1619 10.75ZM92.0696 7.27273V8.40909H87.5469V7.27273H92.0696ZM88.8651 5.18182H90.206V13.5C90.206 13.8788 90.2609 14.1629 90.3707 14.3523C90.4844 14.5379 90.6283 14.6629 90.8026 14.7273C90.9806 14.7879 91.1681 14.8182 91.3651 14.8182C91.5128 14.8182 91.634 14.8106 91.7287 14.7955C91.8234 14.7765 91.8991 14.7614 91.956 14.75L92.2287 15.9545C92.1378 15.9886 92.0109 16.0227 91.848 16.0568C91.6851 16.0947 91.4787 16.1136 91.2287 16.1136C90.8499 16.1136 90.4787 16.0322 90.1151 15.8693C89.7552 15.7064 89.456 15.4583 89.2173 15.125C88.9825 14.7917 88.8651 14.3712 88.8651 13.8636V5.18182ZM98.5639 16V14.9773L102.405 10.7727C102.856 10.2803 103.227 9.85227 103.518 9.48864C103.81 9.12121 104.026 8.77652 104.166 8.45455C104.31 8.12879 104.382 7.78788 104.382 7.43182C104.382 7.02273 104.284 6.66856 104.087 6.36932C103.893 6.07008 103.628 5.83901 103.291 5.67614C102.954 5.51326 102.575 5.43182 102.155 5.43182C101.708 5.43182 101.318 5.52462 100.984 5.71023C100.655 5.89205 100.399 6.14773 100.217 6.47727C100.039 6.80682 99.9503 7.19318 99.9503 7.63636H98.6094C98.6094 6.95455 98.7666 6.35606 99.081 5.84091C99.3954 5.32576 99.8234 4.92424 100.365 4.63636C100.911 4.34848 101.522 4.20455 102.2 4.20455C102.882 4.20455 103.486 4.34848 104.013 4.63636C104.539 4.92424 104.952 5.3125 105.251 5.80114C105.551 6.28977 105.7 6.83333 105.7 7.43182C105.7 7.85985 105.623 8.27841 105.467 8.6875C105.316 9.0928 105.051 9.54545 104.672 10.0455C104.297 10.5417 103.776 11.1477 103.109 11.8636L100.496 14.6591V14.75H105.905V16H98.5639ZM112.047 16.1591C111.191 16.1591 110.462 15.9261 109.859 15.4602C109.257 14.9905 108.797 14.3106 108.479 13.4205C108.161 12.5265 108.001 11.447 108.001 10.1818C108.001 8.92424 108.161 7.85038 108.479 6.96023C108.801 6.06629 109.263 5.38447 109.865 4.91477C110.471 4.44129 111.198 4.20455 112.047 4.20455C112.895 4.20455 113.621 4.44129 114.223 4.91477C114.829 5.38447 115.291 6.06629 115.609 6.96023C115.931 7.85038 116.092 8.92424 116.092 10.1818C116.092 11.447 115.933 12.5265 115.615 13.4205C115.297 14.3106 114.837 14.9905 114.234 15.4602C113.632 15.9261 112.903 16.1591 112.047 16.1591ZM112.047 14.9091C112.895 14.9091 113.554 14.5 114.024 13.6818C114.494 12.8636 114.729 11.697 114.729 10.1818C114.729 9.17424 114.621 8.31629 114.405 7.60795C114.193 6.89962 113.886 6.35985 113.484 5.98864C113.087 5.61742 112.607 5.43182 112.047 5.43182C111.206 5.43182 110.549 5.84659 110.075 6.67614C109.602 7.50189 109.365 8.67045 109.365 10.1818C109.365 11.1894 109.471 12.0455 109.683 12.75C109.895 13.4545 110.2 13.9905 110.598 14.358C111 14.7254 111.482 14.9091 112.047 14.9091ZM118.251 16V14.9773L122.092 10.7727C122.543 10.2803 122.914 9.85227 123.206 9.48864C123.498 9.12121 123.714 8.77652 123.854 8.45455C123.998 8.12879 124.07 7.78788 124.07 7.43182C124.07 7.02273 123.971 6.66856 123.774 6.36932C123.581 6.07008 123.316 5.83901 122.979 5.67614C122.642 5.51326 122.263 5.43182 121.842 5.43182C121.395 5.43182 121.005 5.52462 120.672 5.71023C120.342 5.89205 120.087 6.14773 119.905 6.47727C119.727 6.80682 119.638 7.19318 119.638 7.63636H118.297C118.297 6.95455 118.454 6.35606 118.768 5.84091C119.083 5.32576 119.511 4.92424 120.053 4.63636C120.598 4.34848 121.21 4.20455 121.888 4.20455C122.57 4.20455 123.174 4.34848 123.7 4.63636C124.227 4.92424 124.64 5.3125 124.939 5.80114C125.238 6.28977 125.388 6.83333 125.388 7.43182C125.388 7.85985 125.31 8.27841 125.155 8.6875C125.003 9.0928 124.738 9.54545 124.359 10.0455C123.984 10.5417 123.464 11.1477 122.797 11.8636L120.183 14.6591V14.75H125.592V16H118.251ZM127.939 16V14.9773L131.78 10.7727C132.231 10.2803 132.602 9.85227 132.893 9.48864C133.185 9.12121 133.401 8.77652 133.541 8.45455C133.685 8.12879 133.757 7.78788 133.757 7.43182C133.757 7.02273 133.659 6.66856 133.462 6.36932C133.268 6.07008 133.003 5.83901 132.666 5.67614C132.329 5.51326 131.95 5.43182 131.53 5.43182C131.083 5.43182 130.693 5.52462 130.359 5.71023C130.03 5.89205 129.774 6.14773 129.592 6.47727C129.414 6.80682 129.325 7.19318 129.325 7.63636H127.984C127.984 6.95455 128.142 6.35606 128.456 5.84091C128.77 5.32576 129.198 4.92424 129.74 4.63636C130.286 4.34848 130.897 4.20455 131.575 4.20455C132.257 4.20455 132.861 4.34848 133.388 4.63636C133.914 4.92424 134.327 5.3125 134.626 5.80114C134.926 6.28977 135.075 6.83333 135.075 7.43182C135.075 7.85985 134.998 8.27841 134.842 8.6875C134.691 9.0928 134.426 9.54545 134.047 10.0455C133.672 10.5417 133.151 11.1477 132.484 11.8636L129.871 14.6591V14.75H135.28V16H127.939ZM144.104 0.613636V19.75H142.967V0.613636H144.104ZM161.429 8H160.02C159.937 7.5947 159.791 7.23864 159.582 6.93182C159.378 6.625 159.128 6.36742 158.832 6.15909C158.541 5.94697 158.217 5.78788 157.861 5.68182C157.505 5.57576 157.134 5.52273 156.747 5.52273C156.043 5.52273 155.404 5.70076 154.832 6.05682C154.264 6.41288 153.812 6.9375 153.474 7.63068C153.141 8.32386 152.974 9.17424 152.974 10.1818C152.974 11.1894 153.141 12.0398 153.474 12.733C153.812 13.4261 154.264 13.9508 154.832 14.3068C155.404 14.6629 156.043 14.8409 156.747 14.8409C157.134 14.8409 157.505 14.7879 157.861 14.6818C158.217 14.5758 158.541 14.4186 158.832 14.2102C159.128 13.9981 159.378 13.7386 159.582 13.4318C159.791 13.1212 159.937 12.7652 160.02 12.3636H161.429C161.323 12.9583 161.13 13.4905 160.849 13.9602C160.569 14.4299 160.221 14.8295 159.804 15.1591C159.387 15.4848 158.92 15.733 158.401 15.9034C157.885 16.0739 157.334 16.1591 156.747 16.1591C155.755 16.1591 154.872 15.9167 154.099 15.4318C153.327 14.947 152.719 14.2576 152.276 13.3636C151.832 12.4697 151.611 11.4091 151.611 10.1818C151.611 8.95455 151.832 7.89394 152.276 7C152.719 6.10606 153.327 5.41667 154.099 4.93182C154.872 4.44697 155.755 4.20455 156.747 4.20455C157.334 4.20455 157.885 4.28977 158.401 4.46023C158.92 4.63068 159.387 4.88068 159.804 5.21023C160.221 5.53598 160.569 5.93371 160.849 6.40341C161.13 6.86932 161.323 7.40151 161.429 8ZM167.07 16.1818C166.282 16.1818 165.59 15.9943 164.996 15.6193C164.405 15.2443 163.943 14.7197 163.609 14.0455C163.28 13.3712 163.115 12.5833 163.115 11.6818C163.115 10.7727 163.28 9.97917 163.609 9.30114C163.943 8.62311 164.405 8.09659 164.996 7.72159C165.59 7.34659 166.282 7.15909 167.07 7.15909C167.857 7.15909 168.547 7.34659 169.138 7.72159C169.732 8.09659 170.195 8.62311 170.524 9.30114C170.857 9.97917 171.024 10.7727 171.024 11.6818C171.024 12.5833 170.857 13.3712 170.524 14.0455C170.195 14.7197 169.732 15.2443 169.138 15.6193C168.547 15.9943 167.857 16.1818 167.07 16.1818ZM167.07 14.9773C167.668 14.9773 168.161 14.8239 168.547 14.517C168.933 14.2102 169.219 13.8068 169.405 13.3068C169.59 12.8068 169.683 12.2652 169.683 11.6818C169.683 11.0985 169.59 10.5549 169.405 10.0511C169.219 9.54735 168.933 9.14015 168.547 8.82955C168.161 8.51894 167.668 8.36364 167.07 8.36364C166.471 8.36364 165.979 8.51894 165.592 8.82955C165.206 9.14015 164.92 9.54735 164.734 10.0511C164.549 10.5549 164.456 11.0985 164.456 11.6818C164.456 12.2652 164.549 12.8068 164.734 13.3068C164.92 13.8068 165.206 14.2102 165.592 14.517C165.979 14.8239 166.471 14.9773 167.07 14.9773ZM176.366 16.1818C175.639 16.1818 174.997 15.9981 174.44 15.6307C173.884 15.2595 173.448 14.7367 173.134 14.0625C172.819 13.3845 172.662 12.5833 172.662 11.6591C172.662 10.7424 172.819 9.94697 173.134 9.27273C173.448 8.59848 173.885 8.07765 174.446 7.71023C175.007 7.3428 175.654 7.15909 176.389 7.15909C176.957 7.15909 177.406 7.25379 177.736 7.44318C178.069 7.62879 178.323 7.84091 178.497 8.07955C178.675 8.31439 178.813 8.50758 178.912 8.65909H179.026V4.36364H180.366V16H179.071V14.6591H178.912C178.813 14.8182 178.673 15.0189 178.491 15.2614C178.31 15.5 178.05 15.714 177.713 15.9034C177.376 16.089 176.927 16.1818 176.366 16.1818ZM176.548 14.9773C177.086 14.9773 177.541 14.8371 177.912 14.5568C178.283 14.2727 178.565 13.8807 178.759 13.3807C178.952 12.8769 179.048 12.2955 179.048 11.6364C179.048 10.9848 178.954 10.4148 178.764 9.92614C178.575 9.43371 178.295 9.05114 177.923 8.77841C177.552 8.50189 177.094 8.36364 176.548 8.36364C175.98 8.36364 175.507 8.50947 175.128 8.80114C174.753 9.08902 174.471 9.48106 174.281 9.97727C174.096 10.4697 174.003 11.0227 174.003 11.6364C174.003 12.2576 174.098 12.822 174.287 13.3295C174.48 13.8333 174.764 14.2348 175.139 14.5341C175.518 14.8295 175.988 14.9773 176.548 14.9773ZM186.668 16.1818C185.827 16.1818 185.101 15.9962 184.491 15.625C183.885 15.25 183.418 14.7273 183.088 14.0568C182.762 13.3826 182.599 12.5985 182.599 11.7045C182.599 10.8106 182.762 10.0227 183.088 9.34091C183.418 8.6553 183.876 8.12121 184.463 7.73864C185.054 7.35227 185.743 7.15909 186.531 7.15909C186.986 7.15909 187.435 7.23485 187.878 7.38636C188.321 7.53788 188.724 7.78409 189.088 8.125C189.452 8.46212 189.741 8.90909 189.957 9.46591C190.173 10.0227 190.281 10.7083 190.281 11.5227V12.0909H183.554V10.9318H188.918C188.918 10.4394 188.819 10 188.622 9.61364C188.429 9.22727 188.152 8.92235 187.793 8.69886C187.437 8.47538 187.016 8.36364 186.531 8.36364C185.997 8.36364 185.535 8.49621 185.145 8.76136C184.759 9.02273 184.461 9.36364 184.253 9.78409C184.045 10.2045 183.94 10.6553 183.94 11.1364V11.9091C183.94 12.5682 184.054 13.1269 184.281 13.5852C184.512 14.0398 184.832 14.3864 185.241 14.625C185.651 14.8598 186.126 14.9773 186.668 14.9773C187.02 14.9773 187.338 14.928 187.622 14.8295C187.91 14.7273 188.158 14.5758 188.366 14.375C188.575 14.1705 188.736 13.9167 188.849 13.6136L190.145 13.9773C190.009 14.4167 189.779 14.803 189.457 15.1364C189.135 15.4659 188.738 15.7235 188.264 15.9091C187.791 16.0909 187.259 16.1818 186.668 16.1818ZM201.866 8H200.457C200.374 7.5947 200.228 7.23864 200.02 6.93182C199.815 6.625 199.565 6.36742 199.27 6.15909C198.978 5.94697 198.654 5.78788 198.298 5.68182C197.942 5.57576 197.571 5.52273 197.185 5.52273C196.48 5.52273 195.842 5.70076 195.27 6.05682C194.702 6.41288 194.249 6.9375 193.912 7.63068C193.579 8.32386 193.412 9.17424 193.412 10.1818C193.412 11.1894 193.579 12.0398 193.912 12.733C194.249 13.4261 194.702 13.9508 195.27 14.3068C195.842 14.6629 196.48 14.8409 197.185 14.8409C197.571 14.8409 197.942 14.7879 198.298 14.6818C198.654 14.5758 198.978 14.4186 199.27 14.2102C199.565 13.9981 199.815 13.7386 200.02 13.4318C200.228 13.1212 200.374 12.7652 200.457 12.3636H201.866C201.76 12.9583 201.567 13.4905 201.287 13.9602C201.007 14.4299 200.658 14.8295 200.241 15.1591C199.825 15.4848 199.357 15.733 198.838 15.9034C198.323 16.0739 197.772 16.1591 197.185 16.1591C196.192 16.1591 195.31 15.9167 194.537 15.4318C193.764 14.947 193.156 14.2576 192.713 13.3636C192.27 12.4697 192.048 11.4091 192.048 10.1818C192.048 8.95455 192.27 7.89394 192.713 7C193.156 6.10606 193.764 5.41667 194.537 4.93182C195.31 4.44697 196.192 4.20455 197.185 4.20455C197.772 4.20455 198.323 4.28977 198.838 4.46023C199.357 4.63068 199.825 4.88068 200.241 5.21023C200.658 5.53598 201.007 5.93371 201.287 6.40341C201.567 6.86932 201.76 7.40151 201.866 8ZM205.303 10.75V16H203.962V4.36364H205.303V8.63636H205.416C205.621 8.18561 205.928 7.82765 206.337 7.5625C206.75 7.29356 207.299 7.15909 207.984 7.15909C208.579 7.15909 209.1 7.27841 209.547 7.51705C209.994 7.75189 210.34 8.11364 210.587 8.60227C210.837 9.08712 210.962 9.70455 210.962 10.4545V16H209.621V10.5455C209.621 9.85227 209.441 9.31629 209.081 8.9375C208.725 8.55492 208.231 8.36364 207.598 8.36364C207.159 8.36364 206.765 8.45644 206.416 8.64205C206.071 8.82765 205.799 9.09848 205.598 9.45455C205.401 9.81061 205.303 10.2424 205.303 10.75ZM217.074 16.1818C216.233 16.1818 215.508 15.9962 214.898 15.625C214.292 15.25 213.824 14.7273 213.494 14.0568C213.169 13.3826 213.006 12.5985 213.006 11.7045C213.006 10.8106 213.169 10.0227 213.494 9.34091C213.824 8.6553 214.282 8.12121 214.869 7.73864C215.46 7.35227 216.15 7.15909 216.938 7.15909C217.392 7.15909 217.841 7.23485 218.284 7.38636C218.727 7.53788 219.131 7.78409 219.494 8.125C219.858 8.46212 220.148 8.90909 220.364 9.46591C220.58 10.0227 220.688 10.7083 220.688 11.5227V12.0909H213.96V10.9318H219.324C219.324 10.4394 219.225 10 219.028 9.61364C218.835 9.22727 218.559 8.92235 218.199 8.69886C217.843 8.47538 217.422 8.36364 216.938 8.36364C216.403 8.36364 215.941 8.49621 215.551 8.76136C215.165 9.02273 214.867 9.36364 214.659 9.78409C214.451 10.2045 214.347 10.6553 214.347 11.1364V11.9091C214.347 12.5682 214.46 13.1269 214.688 13.5852C214.919 14.0398 215.239 14.3864 215.648 14.625C216.057 14.8598 216.532 14.9773 217.074 14.9773C217.426 14.9773 217.744 14.928 218.028 14.8295C218.316 14.7273 218.564 14.5758 218.773 14.375C218.981 14.1705 219.142 13.9167 219.256 13.6136L220.551 13.9773C220.415 14.4167 220.186 14.803 219.864 15.1364C219.542 15.4659 219.144 15.7235 218.67 15.9091C218.197 16.0909 217.665 16.1818 217.074 16.1818ZM226.614 7.27273V8.40909H221.909V7.27273H226.614ZM223.318 16V6.06818C223.318 5.56818 223.436 5.15151 223.67 4.81818C223.905 4.48485 224.21 4.23485 224.585 4.06818C224.96 3.90151 225.356 3.81818 225.773 3.81818C226.102 3.81818 226.371 3.8447 226.58 3.89773C226.788 3.95076 226.943 4 227.045 4.04545L226.659 5.20455C226.591 5.18182 226.496 5.15341 226.375 5.11932C226.258 5.08523 226.102 5.06818 225.909 5.06818C225.466 5.06818 225.146 5.17992 224.949 5.40341C224.756 5.62689 224.659 5.95455 224.659 6.38636V16H223.318ZM233.04 10.3864V11.6364H227.949V10.3864H233.04ZM235.246 4.36364L238.7 14.1591H238.837L242.291 4.36364H243.768L239.496 16H238.041L233.768 4.36364H235.246ZM246.99 4.36364V16H245.581V4.36364H246.99ZM249.179 5.61364V4.36364H257.906V5.61364H254.247V16H252.838V5.61364H249.179ZM266.354 0.613636V19.75H265.217V0.613636H266.354ZM274.793 16H273.315L277.588 4.36364H279.043L283.315 16H281.838L278.361 6.20455H278.27L274.793 16ZM275.338 11.4545H281.293V12.7045H275.338V11.4545ZM286.287 4.36364V16H284.946V4.36364H286.287ZM290.084 4.36364V16H288.743V4.36364H290.084ZM297.04 16V7.27273H298.335V8.59091H298.426C298.585 8.15909 298.873 7.80871 299.29 7.53977C299.706 7.27083 300.176 7.13636 300.699 7.13636C300.797 7.13636 300.92 7.13826 301.068 7.14205C301.216 7.14583 301.328 7.15152 301.403 7.15909V8.52273C301.358 8.51136 301.254 8.49432 301.091 8.47159C300.932 8.44508 300.763 8.43182 300.585 8.43182C300.161 8.43182 299.782 8.52083 299.449 8.69886C299.119 8.87311 298.858 9.11553 298.665 9.42614C298.475 9.73295 298.381 10.0833 298.381 10.4773V16H297.04ZM302.993 16V7.27273H304.334V16H302.993ZM303.675 5.81818C303.413 5.81818 303.188 5.72917 302.999 5.55114C302.813 5.37311 302.72 5.15909 302.72 4.90909C302.72 4.65909 302.813 4.44508 302.999 4.26705C303.188 4.08902 303.413 4 303.675 4C303.936 4 304.16 4.08902 304.345 4.26705C304.535 4.44508 304.629 4.65909 304.629 4.90909C304.629 5.15909 304.535 5.37311 304.345 5.55114C304.16 5.72917 303.936 5.81818 303.675 5.81818ZM310.312 19.4545C309.665 19.4545 309.108 19.3712 308.642 19.2045C308.176 19.0417 307.788 18.8258 307.477 18.5568C307.17 18.2917 306.926 18.0076 306.744 17.7045L307.812 16.9545C307.934 17.1136 308.087 17.2955 308.273 17.5C308.458 17.7083 308.712 17.8883 309.034 18.0398C309.36 18.1951 309.786 18.2727 310.312 18.2727C311.017 18.2727 311.598 18.1023 312.057 17.7614C312.515 17.4205 312.744 16.8864 312.744 16.1591V14.3864H312.631C312.532 14.5455 312.392 14.7424 312.21 14.9773C312.032 15.2083 311.775 15.4148 311.438 15.5966C311.104 15.7746 310.653 15.8636 310.085 15.8636C309.381 15.8636 308.748 15.697 308.188 15.3636C307.631 15.0303 307.189 14.5455 306.864 13.9091C306.542 13.2727 306.381 12.5 306.381 11.5909C306.381 10.697 306.538 9.91856 306.852 9.25568C307.167 8.58901 307.604 8.07386 308.165 7.71023C308.725 7.3428 309.373 7.15909 310.108 7.15909C310.676 7.15909 311.127 7.25379 311.46 7.44318C311.797 7.62879 312.055 7.84091 312.233 8.07955C312.415 8.31439 312.555 8.50758 312.653 8.65909H312.79V7.27273H314.085V16.25C314.085 17 313.915 17.6098 313.574 18.0795C313.237 18.553 312.782 18.8996 312.21 19.1193C311.642 19.3428 311.009 19.4545 310.312 19.4545ZM310.267 14.6591C310.805 14.6591 311.259 14.536 311.631 14.2898C312.002 14.0436 312.284 13.6894 312.477 13.2273C312.67 12.7652 312.767 12.2121 312.767 11.5682C312.767 10.9394 312.672 10.3845 312.483 9.90341C312.294 9.42235 312.013 9.04545 311.642 8.77273C311.271 8.5 310.813 8.36364 310.267 8.36364C309.699 8.36364 309.225 8.50758 308.847 8.79545C308.472 9.08333 308.189 9.4697 308 9.95455C307.814 10.4394 307.722 10.9773 307.722 11.5682C307.722 12.1742 307.816 12.7102 308.006 13.1761C308.199 13.6383 308.483 14.0019 308.858 14.267C309.237 14.5284 309.706 14.6591 310.267 14.6591ZM317.881 10.75V16H316.54V4.36364H317.881V8.63636H317.994C318.199 8.18561 318.506 7.82765 318.915 7.5625C319.328 7.29356 319.877 7.15909 320.562 7.15909C321.157 7.15909 321.678 7.27841 322.125 7.51705C322.572 7.75189 322.919 8.11364 323.165 8.60227C323.415 9.08712 323.54 9.70455 323.54 10.4545V16H322.199V10.5455C322.199 9.85227 322.019 9.31629 321.659 8.9375C321.303 8.55492 320.809 8.36364 320.176 8.36364C319.737 8.36364 319.343 8.45644 318.994 8.64205C318.65 8.82765 318.377 9.09848 318.176 9.45455C317.979 9.81061 317.881 10.2424 317.881 10.75ZM329.788 7.27273V8.40909H325.266V7.27273H329.788ZM326.584 5.18182H327.925V13.5C327.925 13.8788 327.98 14.1629 328.089 14.3523C328.203 14.5379 328.347 14.6629 328.521 14.7273C328.699 14.7879 328.887 14.8182 329.084 14.8182C329.232 14.8182 329.353 14.8106 329.447 14.7955C329.542 14.7765 329.618 14.7614 329.675 14.75L329.947 15.9545C329.857 15.9886 329.73 16.0227 329.567 16.0568C329.404 16.0947 329.197 16.1136 328.947 16.1136C328.569 16.1136 328.197 16.0322 327.834 15.8693C327.474 15.7064 327.175 15.4583 326.936 15.125C326.701 14.7917 326.584 14.3712 326.584 13.8636V5.18182ZM337.831 9.22727L336.626 9.56818C336.551 9.36742 336.439 9.17235 336.291 8.98295C336.147 8.78977 335.95 8.63068 335.7 8.50568C335.45 8.38068 335.13 8.31818 334.74 8.31818C334.206 8.31818 333.761 8.44129 333.405 8.6875C333.053 8.92992 332.876 9.23864 332.876 9.61364C332.876 9.94697 332.998 10.2102 333.24 10.4034C333.482 10.5966 333.861 10.7576 334.376 10.8864L335.672 11.2045C336.452 11.3939 337.034 11.6837 337.416 12.0739C337.799 12.4602 337.99 12.9583 337.99 13.5682C337.99 14.0682 337.846 14.5152 337.558 14.9091C337.274 15.303 336.876 15.6136 336.365 15.8409C335.854 16.0682 335.259 16.1818 334.581 16.1818C333.691 16.1818 332.954 15.9886 332.371 15.6023C331.787 15.2159 331.418 14.6515 331.263 13.9091L332.536 13.5909C332.657 14.0606 332.886 14.4129 333.223 14.6477C333.564 14.8826 334.009 15 334.558 15C335.183 15 335.679 14.8674 336.047 14.6023C336.418 14.3333 336.604 14.0114 336.604 13.6364C336.604 13.3333 336.498 13.0795 336.286 12.875C336.073 12.6667 335.748 12.5114 335.308 12.4091L333.854 12.0682C333.054 11.8788 332.467 11.5852 332.092 11.1875C331.721 10.786 331.536 10.2841 331.536 9.68182C331.536 9.18939 331.674 8.75379 331.95 8.375C332.231 7.99621 332.611 7.69886 333.092 7.48295C333.577 7.26705 334.126 7.15909 334.74 7.15909C335.604 7.15909 336.282 7.34848 336.774 7.72727C337.27 8.10606 337.623 8.60606 337.831 9.22727ZM344.509 16V7.27273H345.804V8.59091H345.895C346.054 8.15909 346.342 7.80871 346.759 7.53977C347.175 7.27083 347.645 7.13636 348.168 7.13636C348.266 7.13636 348.389 7.13826 348.537 7.14205C348.685 7.14583 348.796 7.15152 348.872 7.15909V8.52273C348.827 8.51136 348.723 8.49432 348.56 8.47159C348.401 8.44508 348.232 8.43182 348.054 8.43182C347.63 8.43182 347.251 8.52083 346.918 8.69886C346.588 8.87311 346.327 9.11553 346.134 9.42614C345.944 9.73295 345.849 10.0833 345.849 10.4773V16H344.509ZM353.855 16.1818C353.014 16.1818 352.289 15.9962 351.679 15.625C351.073 15.25 350.605 14.7273 350.276 14.0568C349.95 13.3826 349.787 12.5985 349.787 11.7045C349.787 10.8106 349.95 10.0227 350.276 9.34091C350.605 8.6553 351.063 8.12121 351.651 7.73864C352.241 7.35227 352.931 7.15909 353.719 7.15909C354.173 7.15909 354.622 7.23485 355.065 7.38636C355.509 7.53788 355.912 7.78409 356.276 8.125C356.639 8.46212 356.929 8.90909 357.145 9.46591C357.361 10.0227 357.469 10.7083 357.469 11.5227V12.0909H350.741V10.9318H356.105C356.105 10.4394 356.007 10 355.81 9.61364C355.616 9.22727 355.34 8.92235 354.98 8.69886C354.624 8.47538 354.204 8.36364 353.719 8.36364C353.185 8.36364 352.723 8.49621 352.332 8.76136C351.946 9.02273 351.649 9.36364 351.44 9.78409C351.232 10.2045 351.128 10.6553 351.128 11.1364V11.9091C351.128 12.5682 351.241 13.1269 351.469 13.5852C351.7 14.0398 352.02 14.3864 352.429 14.625C352.838 14.8598 353.313 14.9773 353.855 14.9773C354.207 14.9773 354.526 14.928 354.81 14.8295C355.098 14.7273 355.346 14.5758 355.554 14.375C355.762 14.1705 355.923 13.9167 356.037 13.6136L357.332 13.9773C357.196 14.4167 356.967 14.803 356.645 15.1364C356.323 15.4659 355.925 15.7235 355.452 15.9091C354.978 16.0909 354.446 16.1818 353.855 16.1818ZM365.69 9.22727L364.486 9.56818C364.41 9.36742 364.298 9.17235 364.151 8.98295C364.007 8.78977 363.81 8.63068 363.56 8.50568C363.31 8.38068 362.99 8.31818 362.599 8.31818C362.065 8.31818 361.62 8.44129 361.264 8.6875C360.912 8.92992 360.736 9.23864 360.736 9.61364C360.736 9.94697 360.857 10.2102 361.099 10.4034C361.342 10.5966 361.721 10.7576 362.236 10.8864L363.531 11.2045C364.312 11.3939 364.893 11.6837 365.276 12.0739C365.658 12.4602 365.849 12.9583 365.849 13.5682C365.849 14.0682 365.705 14.5152 365.418 14.9091C365.134 15.303 364.736 15.6136 364.224 15.8409C363.713 16.0682 363.118 16.1818 362.44 16.1818C361.55 16.1818 360.813 15.9886 360.23 15.6023C359.647 15.2159 359.277 14.6515 359.122 13.9091L360.395 13.5909C360.516 14.0606 360.745 14.4129 361.082 14.6477C361.423 14.8826 361.868 15 362.418 15C363.043 15 363.539 14.8674 363.906 14.6023C364.277 14.3333 364.463 14.0114 364.463 13.6364C364.463 13.3333 364.357 13.0795 364.145 12.875C363.933 12.6667 363.607 12.5114 363.168 12.4091L361.713 12.0682C360.914 11.8788 360.327 11.5852 359.952 11.1875C359.58 10.786 359.395 10.2841 359.395 9.68182C359.395 9.18939 359.533 8.75379 359.81 8.375C360.09 7.99621 360.471 7.69886 360.952 7.48295C361.437 7.26705 361.986 7.15909 362.599 7.15909C363.463 7.15909 364.141 7.34848 364.634 7.72727C365.13 8.10606 365.482 8.60606 365.69 9.22727ZM371.527 16.1818C370.686 16.1818 369.961 15.9962 369.351 15.625C368.745 15.25 368.277 14.7273 367.947 14.0568C367.622 13.3826 367.459 12.5985 367.459 11.7045C367.459 10.8106 367.622 10.0227 367.947 9.34091C368.277 8.6553 368.735 8.12121 369.322 7.73864C369.913 7.35227 370.603 7.15909 371.391 7.15909C371.845 7.15909 372.294 7.23485 372.737 7.38636C373.18 7.53788 373.584 7.78409 373.947 8.125C374.311 8.46212 374.601 8.90909 374.817 9.46591C375.033 10.0227 375.141 10.7083 375.141 11.5227V12.0909H368.413V10.9318H373.777C373.777 10.4394 373.679 10 373.482 9.61364C373.288 9.22727 373.012 8.92235 372.652 8.69886C372.296 8.47538 371.875 8.36364 371.391 8.36364C370.857 8.36364 370.394 8.49621 370.004 8.76136C369.618 9.02273 369.321 9.36364 369.112 9.78409C368.904 10.2045 368.8 10.6553 368.8 11.1364V11.9091C368.8 12.5682 368.913 13.1269 369.141 13.5852C369.372 14.0398 369.692 14.3864 370.101 14.625C370.51 14.8598 370.985 14.9773 371.527 14.9773C371.879 14.9773 372.197 14.928 372.482 14.8295C372.769 14.7273 373.018 14.5758 373.226 14.375C373.434 14.1705 373.595 13.9167 373.709 13.6136L375.004 13.9773C374.868 14.4167 374.639 14.803 374.317 15.1364C373.995 15.4659 373.597 15.7235 373.124 15.9091C372.65 16.0909 372.118 16.1818 371.527 16.1818ZM377.18 16V7.27273H378.476V8.59091H378.567C378.726 8.15909 379.014 7.80871 379.43 7.53977C379.847 7.27083 380.317 7.13636 380.839 7.13636C380.938 7.13636 381.061 7.13826 381.209 7.14205C381.357 7.14583 381.468 7.15152 381.544 7.15909V8.52273C381.499 8.51136 381.394 8.49432 381.232 8.47159C381.072 8.44508 380.904 8.43182 380.726 8.43182C380.302 8.43182 379.923 8.52083 379.589 8.69886C379.26 8.87311 378.999 9.11553 378.805 9.42614C378.616 9.73295 378.521 10.0833 378.521 10.4773V16H377.18ZM390.536 7.27273L387.308 16H385.945L382.717 7.27273H384.172L386.581 14.2273H386.672L389.081 7.27273H390.536ZM395.652 16.1818C394.811 16.1818 394.086 15.9962 393.476 15.625C392.87 15.25 392.402 14.7273 392.072 14.0568C391.747 13.3826 391.584 12.5985 391.584 11.7045C391.584 10.8106 391.747 10.0227 392.072 9.34091C392.402 8.6553 392.86 8.12121 393.447 7.73864C394.038 7.35227 394.728 7.15909 395.516 7.15909C395.97 7.15909 396.419 7.23485 396.862 7.38636C397.305 7.53788 397.709 7.78409 398.072 8.125C398.436 8.46212 398.726 8.90909 398.942 9.46591C399.158 10.0227 399.266 10.7083 399.266 11.5227V12.0909H392.538V10.9318H397.902C397.902 10.4394 397.804 10 397.607 9.61364C397.413 9.22727 397.137 8.92235 396.777 8.69886C396.421 8.47538 396 8.36364 395.516 8.36364C394.982 8.36364 394.519 8.49621 394.129 8.76136C393.743 9.02273 393.446 9.36364 393.237 9.78409C393.029 10.2045 392.925 10.6553 392.925 11.1364V11.9091C392.925 12.5682 393.038 13.1269 393.266 13.5852C393.497 14.0398 393.817 14.3864 394.226 14.625C394.635 14.8598 395.11 14.9773 395.652 14.9773C396.004 14.9773 396.322 14.928 396.607 14.8295C396.894 14.7273 397.143 14.5758 397.351 14.375C397.559 14.1705 397.72 13.9167 397.834 13.6136L399.129 13.9773C398.993 14.4167 398.764 14.803 398.442 15.1364C398.12 15.4659 397.722 15.7235 397.249 15.9091C396.775 16.0909 396.243 16.1818 395.652 16.1818ZM404.601 16.1818C403.874 16.1818 403.232 15.9981 402.675 15.6307C402.118 15.2595 401.682 14.7367 401.368 14.0625C401.054 13.3845 400.896 12.5833 400.896 11.6591C400.896 10.7424 401.054 9.94697 401.368 9.27273C401.682 8.59848 402.12 8.07765 402.68 7.71023C403.241 7.3428 403.889 7.15909 404.624 7.15909C405.192 7.15909 405.641 7.25379 405.97 7.44318C406.304 7.62879 406.557 7.84091 406.732 8.07955C406.91 8.31439 407.048 8.50758 407.146 8.65909H407.26V4.36364H408.601V16H407.305V14.6591H407.146C407.048 14.8182 406.908 15.0189 406.726 15.2614C406.544 15.5 406.285 15.714 405.947 15.9034C405.61 16.089 405.161 16.1818 404.601 16.1818ZM404.783 14.9773C405.321 14.9773 405.775 14.8371 406.146 14.5568C406.518 14.2727 406.8 13.8807 406.993 13.3807C407.186 12.8769 407.283 12.2955 407.283 11.6364C407.283 10.9848 407.188 10.4148 406.999 9.92614C406.809 9.43371 406.529 9.05114 406.158 8.77841C405.786 8.50189 405.328 8.36364 404.783 8.36364C404.214 8.36364 403.741 8.50947 403.362 8.80114C402.987 9.08902 402.705 9.48106 402.516 9.97727C402.33 10.4697 402.237 11.0227 402.237 11.6364C402.237 12.2576 402.332 12.822 402.521 13.3295C402.714 13.8333 402.999 14.2348 403.374 14.5341C403.752 14.8295 404.222 14.9773 404.783 14.9773ZM412.22 16.0909C411.94 16.0909 411.699 15.9905 411.499 15.7898C411.298 15.589 411.197 15.3485 411.197 15.0682C411.197 14.7879 411.298 14.5473 411.499 14.3466C411.699 14.1458 411.94 14.0455 412.22 14.0455C412.5 14.0455 412.741 14.1458 412.942 14.3466C413.143 14.5473 413.243 14.7879 413.243 15.0682C413.243 15.2538 413.196 15.4242 413.101 15.5795C413.01 15.7348 412.887 15.8598 412.732 15.9545C412.58 16.0455 412.41 16.0909 412.22 16.0909Z" fill="white"/>
</svg>
