<svg width="2263" height="752" viewBox="0 0 2263 752" fill="none" xmlns="http://www.w3.org/2000/svg">
<rect x="24.9184" y="554.83" width="2247" height="199" transform="rotate(-14.1995 24.9184 554.83)" fill="white" stroke="black" stroke-width="6"/>
<path d="M219.995 625.92L228.743 623.707L219.859 588.595L231.218 585.721L229.343 578.31L197.877 586.272L199.752 593.683L211.111 590.809L219.995 625.92ZM221 589.276L229.885 624.387L221.38 626.539L228.242 629.133L236.807 626.966L227.923 591.855L239.282 588.981L237.361 581.388L230.423 578.748L232.36 586.402L221 589.276ZM210.431 591.951L201.137 594.302L207.998 596.897L211.461 596.021L210.431 591.951ZM259.546 615.912L286.214 609.165L284.338 601.754L266.418 606.288L264.174 597.419L278.753 593.73L276.878 586.319L262.299 590.008L259.409 578.588L276.783 574.192L274.908 566.781L248.787 573.39L259.546 615.912ZM260.551 579.269L262.98 588.866L268.872 587.376L267.473 581.848L284.847 577.452L282.925 569.858L275.988 567.219L277.925 574.873L260.551 579.269ZM260.931 616.532L267.792 619.126L294.278 612.424L292.356 604.831L285.419 602.191L287.355 609.845L260.931 616.532ZM265.316 598.1L267.099 605.146L272.991 603.655L272.238 600.679L286.817 596.99L284.896 589.397L277.958 586.757L279.895 594.411L265.316 598.1ZM298.468 583.442C301.773 596.502 314.238 602.849 326.812 599.668C337.078 597.07 344.425 588.812 344.776 578.705L335.422 581.072C334.358 586.577 330.252 590.783 324.906 592.135C317.374 594.041 309.535 589.884 307.337 581.198C305.139 572.511 310.057 565.126 317.59 563.22C322.935 561.868 328.548 563.615 332.102 567.951L341.456 565.584C336.34 556.86 325.95 553.09 315.684 555.688C303.109 558.87 295.164 570.381 298.468 583.442ZM334.147 603.112C344.231 600.56 351.684 592.211 352.642 581.692L345.628 579.007C344.99 589.51 337.248 597.997 327.043 600.579C324.127 601.317 320.45 601.601 318.185 601.334L320.467 602.178C325.921 604.192 329.561 604.272 334.147 603.112ZM342.902 566.188L333.729 568.509L340.606 571.164L349.779 568.843C346.862 563.958 343.527 561.505 339.662 560.027L335.935 558.578C338.904 560.606 341.131 563.275 342.902 566.188ZM317.82 564.132C310.774 565.914 306.189 572.827 308.248 580.967C309.739 586.859 313.944 590.449 318.84 591.408C317.163 589.376 315.939 586.583 315.232 583.789C313.142 575.528 317.757 568.478 324.925 566.664C326.261 566.326 327.704 566.155 328.951 566.227C325.859 563.972 321.83 563.117 317.82 564.132ZM367.928 588.489L376.675 586.275L372.586 570.117L387.773 566.274L391.861 582.433L400.609 580.219L389.85 537.697L381.102 539.911L385.898 558.863L370.711 562.706L365.916 543.753L357.168 545.967L367.928 588.489ZM393.246 583.052L400.108 585.646L408.673 583.479L397.867 540.775L390.93 538.135L401.751 580.9L393.246 583.052ZM387.092 567.416L373.728 570.798L377.817 586.956L369.312 589.108L376.174 591.702L384.739 589.535L380.65 573.377L388.122 571.486L387.092 567.416ZM373.933 546.831L366.996 544.191L371.392 561.564L377.284 560.073L373.933 546.831ZM452.657 567.05L461.404 564.836L452.52 529.725L463.879 526.851L462.004 519.44L430.538 527.402L432.413 534.813L443.772 531.939L452.657 567.05ZM453.662 530.406L462.546 565.517L454.041 567.669L460.903 570.263L469.468 568.096L460.584 532.985L471.943 530.111L470.022 522.518L463.084 519.878L465.021 527.532L453.662 530.406ZM443.092 533.081L433.798 535.432L440.659 538.027L444.122 537.15L443.092 533.081ZM516.936 550.785L526.047 548.48L498.097 510.308L491.051 512.091L484.619 558.962L493.731 556.657L494.562 549.725L512.907 545.083L516.936 550.785ZM497.709 523.591L508.268 538.5L495.512 541.728L497.709 523.591ZM527.614 549.053L518.563 551.343L525.425 553.937L534.415 551.663L506.449 513.43L499.588 510.835L527.614 549.053ZM512.53 546.148L495.4 550.482L494.569 557.414L485.7 559.658L492.561 562.253L501.552 559.978L502.383 553.046L515.14 549.818L512.53 546.148ZM496.618 540.479L504.089 538.588L504.52 534.924L498.34 526.082L496.618 540.479ZM543.64 544.028L569.456 537.496L567.581 530.085L550.512 534.404L541.628 499.293L532.88 501.506L543.64 544.028ZM549.645 502.371L542.708 499.731L551.192 533.262L557.085 531.771L549.645 502.371ZM545.024 544.648L551.886 547.242L577.52 540.756L575.599 533.162L568.662 530.523L570.598 538.177L545.024 544.648ZM586.594 487.915L577.846 490.129L588.606 532.651L597.353 530.437L593.603 515.615L596.701 514.832C603.2 513.187 607.872 515.301 611.426 525.002L612.054 526.718L620.558 524.566L619.899 522.729C616.767 514.052 611.591 508.414 604.733 506.982L609.07 482.228L599.472 484.657L595.859 507.288L595.828 507.296L591.758 508.326L586.594 487.915ZM612.702 509.102L616.935 485.215L609.998 482.575L605.795 506.325C612.533 508.176 617.731 513.905 620.795 522.438L621.821 525.216L613.499 527.322L620.36 529.916L628.743 527.795C628.467 526.96 628.1 526.019 627.763 525.199C624.702 517.7 620.264 511.907 614.269 509.675L612.702 509.102ZM596.931 515.743L594.744 516.296L598.495 531.118L589.99 533.27L596.852 535.864L605.417 533.697L601.667 518.875L604.036 518.276C604.765 518.091 605.691 517.921 606.253 517.844C603.662 515.268 600.637 514.805 596.931 515.743ZM592.439 507.184L595.051 506.523L596.394 498.039L594.612 490.993L587.674 488.353L592.439 507.184ZM652.191 517.338C660.756 515.17 664.826 508.776 662.927 501.274C661.421 495.321 657.719 492.185 648.293 490.692C641.694 489.647 639.556 488.605 638.91 486.054C638.372 483.927 639.324 481.812 642.239 481.074C645.094 480.352 647.241 481.683 647.902 484.295L656.771 482.051C654.896 474.64 648.048 471.59 640.455 473.511C632.254 475.586 628.304 481.433 630.072 488.419C631.648 494.646 635.669 497.894 645.027 499.243C651.397 500.152 653.498 501.301 654.189 504.034C654.881 506.768 653.383 509.021 650.406 509.774C647.43 510.527 644.935 509.608 643.862 506.647L634.994 508.891C637.201 515.572 643.626 519.505 652.191 517.338ZM652.421 518.249C650.599 518.71 648.609 519.019 646.8 518.766L650.725 520.229C653.722 521.345 656.731 521.489 659.526 520.782C668.516 518.507 672.828 511.792 670.922 504.26C669.877 500.129 666.952 497.767 662.784 496.107L661.064 495.443C662.292 496.845 663.224 498.613 663.839 501.043C665.921 509.274 661.533 515.943 652.421 518.249ZM656.148 487.509L664.835 485.311C663.575 480.588 661.182 478.027 657.485 476.7L653.575 475.298C655.815 477.252 657.099 479.771 657.913 482.732L649.469 484.868L656.148 487.509ZM645.369 507.235C645.964 508.054 646.679 508.584 647.516 508.825C648.231 509.097 649.082 509.14 649.933 508.925L645.369 507.235ZM647.221 485.437C646.75 482.809 645.082 481.325 642.47 481.986C640.162 482.57 639.406 484.183 639.806 485.762C640.306 487.736 641.98 488.735 647.211 489.609C647.004 489.305 646.882 488.949 646.79 488.584C646.498 487.43 646.646 486.229 647.221 485.437ZM645.653 500.183C647.401 500.452 648.648 500.782 649.272 500.948C650.032 501.143 651.188 501.626 651.524 501.929L645.653 500.183Z" fill="black"/>
<path d="M909.619 428.803C912.924 441.863 925.388 448.21 937.963 445.029C948.229 442.431 955.576 434.173 955.927 424.066L946.572 426.433C945.509 431.938 941.403 436.144 936.057 437.496C928.524 439.402 920.686 435.245 918.488 426.559C916.29 417.872 921.208 410.487 928.741 408.581C934.086 407.229 939.699 408.976 943.252 413.312L952.607 410.945C947.491 402.221 937.101 398.451 926.835 401.049C914.26 404.231 906.314 415.742 909.619 428.803ZM945.298 448.473C955.382 445.921 962.835 437.572 963.793 427.053L956.779 424.368C956.14 434.871 948.399 443.358 938.193 445.94C935.278 446.678 931.601 446.962 929.335 446.695L931.617 447.539C937.071 449.553 940.711 449.633 945.298 448.473ZM954.053 411.549L944.88 413.87L951.757 416.525L960.929 414.204C958.013 409.319 954.678 406.866 950.813 405.388L947.086 403.939C950.055 405.967 952.281 408.636 954.053 411.549ZM928.971 409.493C921.925 411.275 917.339 418.188 919.399 426.328C920.89 432.22 925.095 435.81 929.991 436.769C928.314 434.737 927.09 431.944 926.383 429.15C924.292 420.889 928.908 413.839 936.076 412.025C937.412 411.687 938.855 411.516 940.102 411.588C937.01 409.333 932.98 408.478 928.971 409.493ZM970.661 413.357C973.92 426.235 986.249 432.811 999.005 429.583C1011.76 426.355 1019.48 414.707 1016.22 401.829C1012.96 388.951 1000.63 382.376 987.877 385.603C975.12 388.831 967.403 400.479 970.661 413.357ZM979.53 411.113C977.363 402.548 982.068 395.088 989.783 393.136C997.498 391.184 1005.18 395.508 1007.35 404.073C1009.52 412.639 1004.81 420.099 997.099 422.051C989.385 424.003 981.698 419.678 979.53 411.113ZM1024.1 404.36C1022.1 396.463 1017.14 392.161 1012.74 390.365L1009.06 388.841C1012.71 391.794 1015.69 395.889 1017.13 401.599C1020.53 415.024 1012.48 427.144 999.236 430.494C996.32 431.232 993.16 431.515 990.378 431.249L992.66 432.094C998.114 434.107 1001.75 434.188 1006.34 433.027C1019.46 429.707 1027.47 417.663 1024.1 404.36ZM990.014 394.047C982.967 395.83 978.382 402.743 980.442 410.883C981.932 416.775 986.137 420.365 991.033 421.323C989.356 419.292 988.132 416.499 987.425 413.705C985.335 405.443 989.95 398.394 997.118 396.58C998.454 396.242 999.898 396.07 1001.14 396.143C998.052 393.887 994.023 393.033 990.014 394.047ZM1064.08 389.785C1066.4 398.958 1061.37 405.142 1053.41 407.156L1047.88 408.555L1040.87 380.855L1046.4 379.456C1054.36 377.442 1061.72 380.491 1064.08 389.785ZM1072.93 387.481C1069.52 373.995 1058.26 368.571 1044.47 372.06L1030.25 375.657L1041.01 418.179L1055.23 414.582C1069.01 411.093 1076.36 401.027 1072.93 387.481ZM1049.26 421.393L1062.56 418.026C1076.77 414.43 1084.36 404.044 1080.81 390.011C1078.79 382.054 1075.1 377.687 1069.69 375.697L1065.2 374.053C1069.55 376.7 1072.3 381.175 1073.84 387.25C1077.42 401.404 1069.79 411.866 1055.46 415.494L1042.4 418.798L1049.26 421.393ZM1058.58 382.385C1055.37 379.902 1051.07 379.245 1046.63 380.367L1042.02 381.535L1048.56 407.413L1054.46 405.922L1048.94 384.114L1053.74 382.9C1055.38 382.485 1056.94 382.283 1058.58 382.385ZM1097.72 403.829L1124.39 397.082L1122.51 389.671L1104.59 394.205L1102.35 385.336L1116.93 381.647L1115.05 374.236L1100.48 377.925L1097.59 366.505L1114.96 362.109L1113.08 354.698L1086.96 361.307L1097.72 403.829ZM1098.73 367.186L1101.16 376.783L1107.05 375.292L1105.65 369.765L1123.02 365.369L1121.1 357.775L1114.16 355.136L1116.1 362.79L1098.73 367.186ZM1099.11 404.448L1105.97 407.043L1132.45 400.341L1130.53 392.748L1123.59 390.108L1125.53 397.762L1099.11 404.448ZM1103.49 386.017L1105.28 393.063L1111.17 391.572L1110.41 388.596L1124.99 384.907L1123.07 377.314L1116.13 374.674L1118.07 382.328L1103.49 386.017ZM1157.88 365.985C1161.19 379.045 1173.65 385.393 1186.23 382.211C1196.49 379.613 1203.84 371.356 1204.19 361.248L1194.84 363.615C1193.77 369.12 1189.67 373.326 1184.32 374.679C1176.79 376.585 1168.95 372.428 1166.75 363.741C1164.55 355.054 1169.47 347.67 1177 345.764C1182.35 344.411 1187.96 346.158 1191.52 350.494L1200.87 348.127C1195.75 339.403 1185.36 335.633 1175.1 338.231C1162.52 341.413 1154.58 352.925 1157.88 365.985ZM1193.56 385.655C1203.64 383.104 1211.1 374.754 1212.06 364.235L1205.04 361.55C1204.4 372.053 1196.66 380.54 1186.46 383.122C1183.54 383.86 1179.86 384.144 1177.6 383.877L1179.88 384.721C1185.33 386.735 1188.97 386.816 1193.56 385.655ZM1202.32 348.731L1193.14 351.052L1200.02 353.707L1209.19 351.386C1206.28 346.501 1202.94 344.048 1199.08 342.57L1195.35 341.122C1198.32 343.15 1200.54 345.818 1202.32 348.731ZM1177.23 346.675C1170.19 348.458 1165.6 355.37 1167.66 363.51C1169.15 369.403 1173.36 372.992 1178.25 373.951C1176.58 371.92 1175.35 369.127 1174.65 366.332C1172.56 358.071 1177.17 351.021 1184.34 349.208C1185.67 348.87 1187.12 348.698 1188.36 348.771C1185.27 346.515 1181.24 345.66 1177.23 346.675ZM1227.34 371.032L1236.09 368.819L1232 352.66L1247.19 348.818L1251.28 364.976L1260.02 362.763L1249.26 320.241L1240.52 322.454L1245.31 341.407L1230.12 345.249L1225.33 326.297L1216.58 328.51L1227.34 371.032ZM1252.66 365.595L1259.52 368.19L1268.09 366.022L1257.28 323.318L1250.34 320.678L1261.16 363.443L1252.66 365.595ZM1246.51 349.959L1233.14 353.341L1237.23 369.499L1228.73 371.651L1235.59 374.246L1244.15 372.078L1240.06 355.92L1247.54 354.029L1246.51 349.959ZM1233.35 329.374L1226.41 326.734L1230.81 344.108L1236.7 342.617L1233.35 329.374ZM1282.51 357.072L1309.18 350.325L1307.3 342.914L1289.38 347.448L1287.14 338.579L1301.72 334.89L1299.84 327.479L1285.26 331.168L1282.37 319.748L1299.75 315.352L1297.87 307.941L1271.75 314.55L1282.51 357.072ZM1283.52 320.429L1285.94 330.027L1291.84 328.536L1290.44 323.008L1307.81 318.612L1305.89 311.019L1298.95 308.379L1300.89 316.033L1283.52 320.429ZM1283.9 357.692L1290.76 360.286L1317.24 353.585L1315.32 345.991L1308.38 343.352L1310.32 351.005L1283.9 357.692ZM1288.28 339.26L1290.06 346.306L1295.96 344.815L1295.2 341.839L1309.78 338.15L1307.86 330.557L1300.92 327.917L1302.86 335.571L1288.28 339.26ZM1329.85 345.094L1338.6 342.881L1334.79 327.816L1348.76 324.281L1346.88 316.87L1332.91 320.405L1329.71 307.77L1346.78 303.451L1344.91 296.04L1319.09 302.572L1329.85 345.094ZM1335.93 328.497L1339.74 343.562L1331.23 345.713L1338.1 348.308L1346.66 346.141L1342.85 331.076L1356.82 327.54L1354.9 319.947L1347.96 317.307L1349.9 324.961L1335.93 328.497ZM1330.85 308.451L1333.59 319.263L1339.48 317.772L1337.78 311.03L1354.85 306.71L1352.93 299.117L1345.99 296.477L1347.92 304.131L1330.85 308.451Z" fill="black"/>
<path d="M1538.16 293.161C1546.73 290.993 1550.8 284.599 1548.9 277.097C1547.39 271.144 1543.69 268.008 1534.27 266.515C1527.67 265.47 1525.53 264.428 1524.88 261.877C1524.34 259.75 1525.3 257.635 1528.21 256.898C1531.07 256.175 1533.21 257.506 1533.87 260.118L1542.74 257.874C1540.87 250.463 1534.02 247.413 1526.43 249.334C1518.23 251.409 1514.28 257.256 1516.04 264.242C1517.62 270.469 1521.64 273.717 1531 275.066C1537.37 275.975 1539.47 277.124 1540.16 279.857C1540.85 282.591 1539.36 284.844 1536.38 285.597C1533.4 286.35 1530.91 285.431 1529.84 282.47L1520.97 284.714C1523.17 291.395 1529.6 295.328 1538.16 293.161ZM1538.39 294.072C1536.57 294.533 1534.58 294.842 1532.77 294.589L1536.7 296.052C1539.69 297.168 1542.7 297.312 1545.5 296.605C1554.49 294.33 1558.8 287.615 1556.89 280.083C1555.85 275.952 1552.93 273.59 1548.76 271.93L1547.04 271.266C1548.26 272.668 1549.2 274.436 1549.81 276.866C1551.89 285.097 1547.51 291.766 1538.39 294.072ZM1542.12 263.332L1550.81 261.134C1549.55 256.411 1547.15 253.85 1543.46 252.523L1539.55 251.121C1541.79 253.075 1543.07 255.594 1543.89 258.555L1535.44 260.691L1542.12 263.332ZM1531.34 283.058C1531.94 283.877 1532.65 284.407 1533.49 284.648C1534.2 284.92 1535.05 284.963 1535.91 284.748L1531.34 283.058ZM1533.19 261.26C1532.72 258.632 1531.05 257.148 1528.44 257.809C1526.13 258.393 1525.38 260.006 1525.78 261.585C1526.28 263.559 1527.95 264.558 1533.18 265.432C1532.98 265.129 1532.85 264.772 1532.76 264.407C1532.47 263.253 1532.62 262.052 1533.19 261.26ZM1531.63 276.006C1533.37 276.275 1534.62 276.605 1535.24 276.771C1536 276.966 1537.16 277.449 1537.5 277.752L1531.63 276.006ZM1562.92 263.5C1566.22 276.56 1578.69 282.907 1591.26 279.726C1601.53 277.128 1608.87 268.87 1609.22 258.763L1599.87 261.13C1598.81 266.634 1594.7 270.841 1589.35 272.193C1581.82 274.099 1573.98 269.942 1571.78 261.256C1569.59 252.569 1574.5 245.184 1582.04 243.278C1587.38 241.926 1593 243.672 1596.55 248.009L1605.9 245.642C1600.79 236.918 1590.4 233.148 1580.13 235.746C1567.56 238.927 1559.61 250.439 1562.92 263.5ZM1598.59 283.17C1608.68 280.618 1616.13 272.269 1617.09 261.75L1610.08 259.064C1609.44 269.568 1601.7 278.055 1591.49 280.637C1588.57 281.375 1584.9 281.659 1582.63 281.392L1584.91 282.236C1590.37 284.249 1594.01 284.33 1598.59 283.17ZM1607.35 246.246L1598.18 248.566L1605.05 251.222L1614.23 248.901C1611.31 244.015 1607.97 241.563 1604.11 240.085L1600.38 238.636C1603.35 240.664 1605.58 243.333 1607.35 246.246ZM1582.27 244.189C1575.22 245.972 1570.64 252.885 1572.7 261.025C1574.19 266.917 1578.39 270.507 1583.29 271.466C1581.61 269.434 1580.39 266.641 1579.68 263.847C1577.59 255.586 1582.2 248.536 1589.37 246.722C1590.71 246.384 1592.15 246.213 1593.4 246.285C1590.31 244.03 1586.28 243.175 1582.27 244.189ZM1637.99 253.941L1641.08 253.157C1647.04 251.651 1652.06 254.904 1654.56 261.705L1654.97 262.829L1663.48 260.677L1663.03 259.432C1660.78 253.086 1656.94 249.146 1652.09 247.594C1656.48 244.025 1658.23 238.671 1656.79 232.961C1654.68 224.639 1646.7 219.677 1636.26 222.32L1621.62 226.025L1632.38 268.547L1641.12 266.333L1637.99 253.941ZM1632.21 231.101L1637.92 229.656C1642.72 228.442 1646.67 230.284 1647.96 235.387C1649.26 240.49 1646.65 243.993 1641.85 245.207L1636.14 246.652L1632.21 231.101ZM1642.26 267.014L1633.76 269.166L1640.62 271.76L1649.19 269.593L1646.05 257.201L1648.42 256.601C1648.91 256.478 1649.39 256.355 1649.89 256.293C1647.53 254.111 1644.54 253.254 1641.32 254.068L1639.13 254.622L1642.26 267.014ZM1645.88 233.007C1644.21 230.519 1641.43 229.737 1638.15 230.567L1633.35 231.781L1636.82 245.51L1642.72 244.019L1640.27 234.36L1645.25 233.1C1645.5 233.039 1645.68 232.992 1645.88 233.007ZM1664.67 235.491C1663.38 230.389 1660.91 227.524 1655.92 225.684L1652.42 224.371C1655.1 226.279 1656.79 229.146 1657.7 232.73C1659.1 238.258 1657.65 243.536 1653.88 247.27C1658.25 249.203 1662.29 253.158 1664.62 261.358L1656.36 263.448L1663.22 266.042L1671.54 263.937L1670.9 261.902C1669.07 256.223 1665.02 251.949 1660.65 250.016C1664.53 246.191 1666.03 240.898 1664.67 235.491ZM1683.81 255.533L1710.47 248.785L1708.6 241.374L1690.68 245.908L1688.44 237.04L1703.01 233.351L1701.14 225.94L1686.56 229.629L1683.67 218.208L1701.04 213.812L1699.17 206.401L1673.05 213.011L1683.81 255.533ZM1684.81 218.889L1687.24 228.487L1693.13 226.996L1691.73 221.468L1709.11 217.072L1707.19 209.479L1700.25 206.839L1702.19 214.493L1684.81 218.889ZM1685.19 256.152L1692.05 258.746L1718.54 252.045L1716.62 244.452L1709.68 241.812L1711.62 249.466L1685.19 256.152ZM1689.58 237.72L1691.36 244.767L1697.25 243.276L1696.5 240.299L1711.08 236.61L1709.16 229.017L1702.22 226.377L1704.16 234.031L1689.58 237.72ZM1739.47 241.449L1748.22 239.236L1739.33 204.124L1750.69 201.25L1748.82 193.839L1717.35 201.801L1719.22 209.212L1730.58 206.338L1739.47 241.449ZM1740.47 204.805L1749.36 239.916L1740.85 242.068L1747.71 244.662L1756.28 242.495L1747.4 207.384L1758.76 204.51L1756.83 196.917L1749.9 194.277L1751.83 201.931L1740.47 204.805ZM1729.9 207.48L1720.61 209.831L1727.47 212.426L1730.93 211.549L1729.9 207.48ZM1832.9 189.562L1839.62 216.108L1848.37 213.894L1837.61 171.372L1831.05 173.032L1819.49 200.907L1796.06 181.886L1789.5 183.546L1800.26 226.068L1809 223.854L1802.29 197.308L1819.85 211.544L1824.22 210.437L1832.9 189.562ZM1841 216.727L1847.87 219.321L1856.43 217.154L1845.63 174.45L1838.69 171.81L1849.51 214.575L1841 216.727ZM1810.15 224.535L1801.64 226.687L1808.5 229.281L1817.07 227.114L1811.78 206.217L1803.89 199.811L1810.15 224.535ZM1824.88 211.241L1821.54 212.086L1828.4 214.681L1831.92 213.789L1835.74 204.614L1832.68 192.526L1824.88 211.241ZM1798.92 182.972L1819.1 199.388L1819.75 197.867L1803.5 184.722L1798.92 182.972ZM1870.85 208.206L1897.52 201.458L1895.64 194.047L1877.72 198.581L1875.48 189.712L1890.06 186.023L1888.18 178.612L1873.6 182.301L1870.71 170.881L1888.09 166.485L1886.21 159.074L1860.09 165.683L1870.85 208.206ZM1871.85 171.562L1874.28 181.16L1880.18 179.669L1878.78 174.141L1896.15 169.745L1894.23 162.152L1887.29 159.512L1889.23 167.166L1871.85 171.562ZM1872.23 208.825L1879.1 211.419L1905.58 204.718L1903.66 197.124L1896.72 194.485L1898.66 202.139L1872.23 208.825ZM1876.62 190.393L1878.4 197.439L1884.29 195.949L1883.54 192.972L1898.12 189.283L1896.2 181.69L1889.26 179.05L1891.2 186.704L1876.62 190.393ZM1930.4 193.913C1938.97 191.746 1943.04 185.351 1941.14 177.849C1939.63 171.896 1935.93 168.761 1926.5 167.268C1919.9 166.223 1917.77 165.18 1917.12 162.629C1916.58 160.503 1917.53 158.388 1920.45 157.65C1923.3 156.928 1925.45 158.259 1926.11 160.871L1934.98 158.627C1933.11 151.216 1926.26 148.165 1918.67 150.087C1910.46 152.162 1906.51 158.009 1908.28 164.995C1909.86 171.221 1913.88 174.469 1923.24 175.818C1929.61 176.727 1931.71 177.876 1932.4 180.61C1933.09 183.343 1931.59 185.597 1928.62 186.35C1925.64 187.103 1923.14 186.183 1922.07 183.223L1913.2 185.467C1915.41 192.147 1921.84 196.08 1930.4 193.913ZM1930.63 194.824C1928.81 195.285 1926.82 195.595 1925.01 195.342L1928.93 196.805C1931.93 197.921 1934.94 198.064 1937.74 197.357C1946.73 195.082 1951.04 188.368 1949.13 180.835C1948.09 176.705 1945.16 174.342 1940.99 172.682L1939.27 172.019C1940.5 173.421 1941.43 175.189 1942.05 177.619C1944.13 185.85 1939.74 192.519 1930.63 194.824ZM1934.36 164.084L1943.05 161.886C1941.79 157.164 1939.39 154.602 1935.7 153.275L1931.79 151.873C1934.03 153.827 1935.31 156.346 1936.12 159.307L1927.68 161.444L1934.36 164.084ZM1923.58 183.811C1924.17 184.63 1924.89 185.16 1925.73 185.401C1926.44 185.672 1927.29 185.715 1928.14 185.5L1923.58 183.811ZM1925.43 162.013C1924.96 159.385 1923.29 157.9 1920.68 158.561C1918.37 159.145 1917.62 160.758 1918.02 162.338C1918.52 164.312 1920.19 165.31 1925.42 166.184C1925.21 165.881 1925.09 165.524 1925 165.16C1924.71 164.006 1924.86 162.805 1925.43 162.013ZM1923.86 176.759C1925.61 177.027 1926.86 177.358 1927.48 177.523C1928.24 177.719 1929.4 178.202 1929.73 178.505L1923.86 176.759ZM1975.78 182.43C1984.35 180.263 1988.42 173.868 1986.52 166.366C1985.01 160.413 1981.31 157.278 1971.88 155.785C1965.29 154.74 1963.15 153.698 1962.5 151.146C1961.96 149.02 1962.92 146.905 1965.83 146.167C1968.69 145.445 1970.83 146.776 1971.49 149.388L1980.36 147.144C1978.49 139.733 1971.64 136.683 1964.05 138.604C1955.85 140.679 1951.9 146.526 1953.66 153.512C1955.24 159.738 1959.26 162.987 1968.62 164.335C1974.99 165.244 1977.09 166.393 1977.78 169.127C1978.47 171.86 1976.97 174.114 1974 174.867C1971.02 175.62 1968.53 174.7 1967.45 171.74L1958.59 173.984C1960.79 180.664 1967.22 184.597 1975.78 182.43ZM1976.01 183.341C1974.19 183.802 1972.2 184.112 1970.39 183.859L1974.32 185.322C1977.31 186.438 1980.32 186.581 1983.12 185.874C1992.11 183.599 1996.42 176.885 1994.51 169.353C1993.47 165.222 1990.54 162.859 1986.38 161.2L1984.66 160.536C1985.88 161.938 1986.82 163.706 1987.43 166.136C1989.51 174.367 1985.12 181.036 1976.01 183.341ZM1979.74 152.602L1988.43 150.404C1987.17 145.681 1984.77 143.119 1981.08 141.792L1977.17 140.39C1979.41 142.344 1980.69 144.863 1981.5 147.825L1973.06 149.961L1979.74 152.602ZM1968.96 172.328C1969.56 173.147 1970.27 173.677 1971.11 173.918C1971.82 174.189 1972.67 174.232 1973.52 174.017L1968.96 172.328ZM1970.81 150.53C1970.34 147.902 1968.67 146.417 1966.06 147.078C1963.75 147.662 1963 149.275 1963.4 150.855C1963.9 152.829 1965.57 153.827 1970.8 154.702C1970.6 154.398 1970.47 154.041 1970.38 153.677C1970.09 152.523 1970.24 151.322 1970.81 150.53ZM1969.24 165.276C1970.99 165.544 1972.24 165.875 1972.86 166.041C1973.62 166.236 1974.78 166.719 1975.12 167.022L1969.24 165.276ZM2036.41 166.314L2045.52 164.009L2017.57 125.837L2010.52 127.62L2004.09 174.491L2013.2 172.186L2014.04 165.253L2032.38 160.612L2036.41 166.314ZM2017.18 139.12L2027.74 154.029L2014.98 157.257L2017.18 139.12ZM2047.09 164.582L2038.04 166.872L2044.9 169.466L2053.89 167.192L2025.92 128.959L2019.06 126.364L2047.09 164.582ZM2032 161.676L2014.87 166.011L2014.04 172.943L2005.17 175.187L2012.03 177.782L2021.02 175.507L2021.86 168.575L2034.61 165.347L2032 161.676ZM2016.09 156.008L2023.56 154.117L2023.99 150.453L2017.81 141.611L2016.09 156.008ZM2053.81 139.29C2057.11 152.35 2069.09 158.821 2082.15 155.516C2095.82 152.058 2102.55 140.853 2099.37 127.762L2076.16 133.634L2077.96 140.741L2090.53 137.559C2089.57 142.714 2086.01 146.523 2080.24 147.984C2072.16 150.028 2064.87 145.733 2062.67 137.046C2060.48 128.359 2065.39 120.975 2072.93 119.069C2078.27 117.716 2083.89 119.463 2087.44 123.799L2096.79 121.432C2091.68 112.708 2081.29 108.939 2071.02 111.536C2058.45 114.718 2050.5 126.23 2053.81 139.29ZM2089.48 158.96C2103.03 155.533 2110 144.267 2107.31 130.794L2100.37 128.155C2103.66 141.671 2095.99 152.984 2082.38 156.427C2079.46 157.165 2075.79 157.449 2073.52 157.182L2075.8 158.027C2081.26 160.04 2084.9 160.121 2089.48 158.96ZM2098.24 122.036L2089.07 124.357L2095.94 127.012L2105.12 124.691C2102.2 119.806 2098.86 117.353 2095 115.875L2091.27 114.427C2094.24 116.455 2096.47 119.123 2098.24 122.036ZM2085.99 143.879C2087.4 142.553 2088.57 140.772 2089.18 138.87L2079.34 141.36L2085.99 143.879ZM2063.59 136.815C2065.08 142.708 2069.28 146.298 2074.18 147.256C2072.5 145.225 2071.28 142.432 2070.57 139.637C2068.49 131.437 2072.91 124.373 2080.26 122.513C2081.6 122.175 2083.04 122.003 2084.29 122.076C2081.2 119.82 2077.17 118.965 2073.16 119.98C2065.93 121.809 2061.56 128.797 2063.59 136.815ZM2124.15 144.112L2150.82 137.364L2148.95 129.953L2131.03 134.488L2128.78 125.619L2143.36 121.93L2141.49 114.519L2126.91 118.208L2124.02 106.788L2141.39 102.392L2139.52 94.9806L2113.4 101.59L2124.15 144.112ZM2125.16 107.468L2127.59 117.066L2133.48 115.575L2132.08 110.047L2149.46 105.651L2147.53 98.058L2140.6 95.4182L2142.53 103.072L2125.16 107.468ZM2125.54 144.731L2132.4 147.325L2158.89 140.624L2156.96 133.031L2150.03 130.391L2151.96 138.045L2125.54 144.731ZM2129.92 126.299L2131.71 133.346L2137.6 131.855L2136.85 128.878L2151.43 125.189L2149.5 117.596L2142.57 114.956L2144.5 122.61L2129.92 126.299Z" fill="black"/>
<path d="M818.242 397.171C818.013 395.416 820.485 394.791 821.118 396.443L826.429 410.303C833.287 428.201 851.516 439.067 870.521 436.588L885.239 434.668C886.994 434.439 887.619 436.911 885.967 437.544L872.107 442.855C854.209 449.713 843.343 467.941 845.822 486.947L847.742 501.665C847.971 503.42 845.499 504.045 844.866 502.393L839.555 488.532C832.697 470.635 814.469 459.769 795.463 462.248L780.745 464.168C778.99 464.397 778.365 461.925 780.017 461.292L793.877 455.981C811.775 449.123 822.641 430.894 820.162 411.889L818.242 397.171Z" fill="#39DBFF"/>
<path d="M1422.97 244.157C1422.74 242.403 1425.21 241.777 1425.84 243.429L1431.16 257.29C1438.01 275.187 1456.24 286.054 1475.25 283.574L1489.97 281.654C1491.72 281.425 1492.35 283.897 1490.69 284.53L1476.83 289.841C1458.94 296.699 1448.07 314.928 1450.55 333.933L1452.47 348.651C1452.7 350.406 1450.23 351.031 1449.59 349.379L1444.28 335.519C1437.42 317.622 1419.2 306.755 1400.19 309.234L1385.47 311.155C1383.72 311.383 1383.09 308.912 1384.74 308.278L1398.6 302.967C1416.5 296.109 1427.37 277.881 1424.89 258.875L1422.97 244.157Z" fill="#FFF500"/>
<rect x="22.4123" y="71.6801" width="2247" height="199" transform="rotate(5.51862 22.4123 71.6801)" fill="white" stroke="black" stroke-width="6"/>
<path d="M137.968 184.987C137.058 194.405 130.239 198.531 122.068 197.741L116.393 197.193L119.14 168.752L124.816 169.301C132.987 170.09 138.89 175.445 137.968 184.987ZM147.08 185.805C148.418 171.959 139.647 163.053 125.489 161.685L110.894 160.275L106.676 203.934L121.271 205.344C135.429 206.712 145.737 199.713 147.08 185.805ZM113.355 209.741L127.014 211.061C141.608 212.471 152.252 205.253 153.644 190.845C154.433 182.675 152.433 177.32 148.006 173.618L144.336 170.557C147.541 174.518 148.618 179.658 148.016 185.895C146.612 200.427 135.9 207.702 121.18 206.28L107.771 204.984L113.355 209.741ZM135.295 176.168C133.108 172.746 129.279 170.676 124.726 170.236L119.986 169.778L117.419 196.348L123.468 196.932L125.632 174.541L130.559 175.017C132.243 175.18 133.784 175.518 135.295 176.168ZM163.895 187.429C162.617 200.652 172.004 211.001 185.102 212.267C198.2 213.532 209.395 205.171 210.672 191.949C211.95 178.726 202.563 168.377 189.465 167.111C176.367 165.846 165.172 174.207 163.895 187.429ZM173.001 188.309C173.85 179.515 180.797 174.08 188.718 174.845C196.639 175.61 202.416 182.275 201.566 191.069C200.717 199.863 193.77 205.298 185.849 204.533C177.928 203.768 172.151 197.103 173.001 188.309ZM217.236 196.99C218.019 188.881 214.795 183.156 211.262 179.982L208.31 177.304C210.755 181.318 212.174 186.176 211.608 192.039C210.276 205.823 198.608 214.516 185.012 213.202C182.018 212.913 178.948 212.113 176.419 210.924L178.282 212.489C182.737 216.225 186.136 217.529 190.845 217.984C204.317 219.285 215.916 210.648 217.236 196.99ZM188.627 175.781C181.392 175.082 174.744 180.042 173.936 188.399C173.352 194.449 176.099 199.247 180.385 201.802C179.491 199.323 179.281 196.281 179.558 193.412C180.378 184.93 187.101 179.851 194.461 180.562C195.833 180.694 197.249 181.02 198.398 181.509C196.249 178.342 192.744 176.178 188.627 175.781ZM228.492 215.704L237.473 216.571L240.125 189.129L258.243 218.578L264.854 219.217L269.072 175.558L260.091 174.69L257.445 202.071L239.322 172.684L232.71 172.045L228.492 215.704ZM259.711 219.664L265.295 224.421L271.345 225.006L275.581 181.16L269.941 176.334L265.699 220.243L259.711 219.664ZM238.319 217.597L229.587 216.754L235.171 221.511L243.965 222.361L246.074 200.531L240.795 191.963L238.319 217.597ZM256.775 199.236L257.028 196.616L245.199 177.658L241.591 174.603L256.775 199.236ZM296.483 222.273L305.464 223.14L308.947 187.091L320.61 188.218L321.346 180.608L289.038 177.487L288.303 185.096L299.966 186.223L296.483 222.273ZM309.792 188.117L306.309 224.166L297.578 223.323L303.161 228.08L311.956 228.93L315.439 192.88L327.102 194.007L327.855 186.211L322.215 181.385L321.456 189.244L309.792 188.117ZM298.94 187.068L289.398 186.146L294.981 190.903L298.536 191.247L298.94 187.068ZM385.665 219.684L398.656 203.816L397.815 232.063L407.046 232.955L407.771 188.959L401.16 188.32L384.45 208.802L371.971 185.5L365.36 184.861L357.649 228.182L366.88 229.074L371.462 201.189L381.175 219.25L385.665 219.684ZM407.953 233.987L398.972 233.119L404.556 237.876L413.599 238.75L414.349 194.504L408.703 189.741L407.953 233.987ZM358.681 229.226L364.265 233.984L373.308 234.857L376.908 213.235L371.94 204.068L367.662 230.094L358.681 229.226ZM397.636 206.55L386.011 220.661L382.643 220.336L388.227 225.093L392.219 225.479L397.274 219.42L397.636 206.55ZM384.607 207.18L385.973 205.423L378.832 192.017L373.715 186.99L384.607 207.18ZM433.409 191.436L429.191 235.095L438.173 235.962L442.391 192.303L433.409 191.436ZM430.286 236.145L435.87 240.902L444.664 241.752L448.9 197.906L443.26 193.08L439.018 236.988L430.286 236.145ZM473.864 240.166C482.658 241.016 488.647 236.369 489.391 228.667C489.982 222.554 487.555 218.354 479.184 213.768C473.325 210.558 471.664 208.855 471.917 206.236C472.128 204.053 473.737 202.383 476.731 202.672C479.662 202.955 481.234 204.933 480.975 207.615L490.081 208.494C490.816 200.885 485.399 195.703 477.603 194.95C469.183 194.137 463.492 198.308 462.799 205.481C462.181 211.874 464.871 216.288 473.225 220.715C478.915 223.72 480.505 225.51 480.234 228.317C479.963 231.124 477.792 232.74 474.736 232.444C471.68 232.149 469.641 230.441 469.631 227.293L460.525 226.413C460.349 233.446 465.07 239.316 473.864 240.166ZM473.774 241.102C471.902 240.921 469.925 240.541 468.307 239.692L471.508 242.394C473.953 244.455 476.738 245.606 479.607 245.883C488.838 246.775 495.162 241.909 495.909 234.175C496.319 229.934 494.363 226.723 490.999 223.754L489.604 222.55C490.287 224.284 490.568 226.262 490.327 228.757C489.51 237.208 483.129 242.006 473.774 241.102ZM487.653 213.422L496.572 214.284C496.98 209.413 495.591 206.194 492.559 203.698L489.351 201.058C490.8 203.654 491.159 206.458 490.926 209.52L482.257 208.683L487.653 213.422ZM470.85 228.355C471.134 229.326 471.629 230.067 472.335 230.576C472.917 231.073 473.704 231.4 474.577 231.485L470.85 228.355ZM479.949 208.46C480.392 205.827 479.323 203.867 476.641 203.608C474.271 203.379 473.015 204.642 472.859 206.264C472.663 208.291 473.902 209.796 478.531 212.383C478.44 212.028 478.445 211.651 478.481 211.277C478.595 210.092 479.14 209.011 479.949 208.46ZM473.497 221.812C475.052 222.654 476.115 223.387 476.646 223.753C477.296 224.193 478.221 225.038 478.435 225.436L473.497 221.812ZM520.459 244.668C529.253 245.518 535.241 240.871 535.986 233.169C536.576 227.056 534.149 222.856 525.779 218.27C519.92 215.06 518.259 213.357 518.512 210.738C518.723 208.555 520.332 206.885 523.326 207.174C526.257 207.457 527.829 209.434 527.57 212.116L536.676 212.996C537.411 205.387 531.994 200.205 524.198 199.452C515.778 198.638 510.087 202.81 509.394 209.983C508.776 216.375 511.466 220.79 519.82 225.217C525.51 228.222 527.1 230.012 526.828 232.819C526.557 235.626 524.387 237.241 521.331 236.946C518.274 236.651 516.236 234.943 516.226 231.794L507.12 230.915C506.944 237.948 511.664 243.818 520.459 244.668ZM520.368 245.604C518.497 245.423 516.519 245.043 514.902 244.194L518.103 246.896C520.548 248.957 523.332 250.108 526.201 250.385C535.432 251.277 541.757 246.411 542.504 238.677C542.914 234.436 540.958 231.225 537.593 228.256L536.199 227.051C536.881 228.785 537.162 230.764 536.921 233.259C536.105 241.71 529.724 246.507 520.368 245.604ZM534.248 217.924L543.167 218.785C543.574 213.915 542.186 210.696 539.153 208.199L535.946 205.56C537.395 208.155 537.754 210.96 537.521 214.022L528.851 213.184L534.248 217.924ZM517.445 232.857C517.729 233.828 518.224 234.569 518.93 235.077C519.512 235.574 520.298 235.902 521.171 235.987L517.445 232.857ZM526.544 212.962C526.987 210.329 525.917 208.368 523.235 208.109C520.865 207.88 519.61 209.144 519.453 210.766C519.258 212.793 520.497 214.297 525.126 216.885C525.034 216.53 525.039 216.153 525.075 215.778C525.19 214.593 525.735 213.513 526.544 212.962ZM520.092 226.313C521.647 227.156 522.709 227.888 523.24 228.254C523.89 228.695 524.816 229.54 525.029 229.938L520.092 226.313ZM575.572 227.204C574.294 240.427 583.682 250.776 596.779 252.042C609.877 253.307 621.072 244.946 622.349 231.724C623.627 218.501 614.24 208.152 601.142 206.886C588.044 205.621 576.849 213.982 575.572 227.204ZM584.678 228.084C585.528 219.29 592.474 213.855 600.395 214.62C608.316 215.385 614.093 222.05 613.243 230.844C612.394 239.638 605.447 245.073 597.526 244.308C589.605 243.543 583.828 236.878 584.678 228.084ZM628.913 236.765C629.696 228.656 626.472 222.931 622.939 219.757L619.987 217.079C622.432 221.093 623.851 225.951 623.285 231.814C621.953 245.598 610.285 254.291 596.689 252.977C593.695 252.688 590.625 251.888 588.096 250.699L589.959 252.264C594.414 256 597.813 257.304 602.522 257.759C615.994 259.06 627.593 250.423 628.913 236.765ZM600.304 215.556C593.069 214.856 586.421 219.817 585.613 228.174C585.029 234.224 587.776 239.022 592.062 241.577C591.168 239.098 590.958 236.056 591.235 233.187C592.055 224.705 598.778 219.626 606.138 220.337C607.51 220.469 608.926 220.795 610.075 221.284C607.926 218.117 604.421 215.953 600.304 215.556ZM658.434 257.999C668.413 258.963 677.349 253.783 678.626 240.56L681.061 215.363L672.08 214.495L669.591 240.254C668.85 247.926 664.046 250.735 659.181 250.265C654.316 249.795 650.139 246.118 650.88 238.446L653.369 212.688L644.387 211.82L641.953 237.017C640.675 250.24 648.454 257.035 658.434 257.999ZM655.448 260.228C657.955 262.296 660.434 263.354 664.176 263.716C674.53 264.716 683.864 259.323 685.19 245.601L687.57 220.965L681.93 216.14L679.562 240.651C678.224 254.497 668.821 259.947 658.343 258.934C656.16 258.723 653.814 258.245 652.066 257.446L655.448 260.228ZM657.444 243.487L659.878 218.29L654.238 213.464L651.815 238.537C651.207 244.836 654.155 248.205 657.905 249.134C657.364 247.571 657.233 245.67 657.444 243.487ZM708.465 262.077L717.446 262.945L720.929 226.895L732.592 228.022L733.327 220.413L701.02 217.291L700.285 224.901L711.948 226.027L708.465 262.077ZM721.774 227.921L718.291 263.971L709.559 263.127L715.143 267.884L723.937 268.734L727.42 232.684L739.083 233.811L739.837 226.015L734.196 221.189L733.437 229.048L721.774 227.921ZM710.922 226.873L701.379 225.951L706.963 230.708L710.518 231.051L710.922 226.873Z" fill="black"/>
<path d="M896.329 258.195C895.033 271.604 904.625 281.785 917.536 283.032C928.076 284.051 937.779 278.756 941.52 269.36L931.915 268.432C929.057 273.255 923.772 275.829 918.283 275.298C910.549 274.551 904.573 267.993 905.435 259.075C906.296 250.156 913.418 244.863 921.152 245.61C926.64 246.141 931.334 249.679 933.216 254.96L942.821 255.888C940.949 245.949 932.439 238.895 921.899 237.877C908.988 236.629 897.624 244.785 896.329 258.195ZM923.279 288.749C933.632 289.75 943.466 284.404 947.916 274.825L942.22 269.931C938.075 279.603 927.924 284.98 917.446 283.968C914.452 283.679 910.895 282.705 908.852 281.69L910.716 283.255C915.171 286.99 918.57 288.294 923.279 288.749ZM943.978 256.944L934.56 256.034L940.138 260.854L949.556 261.764C948.459 256.181 946.146 252.747 943.008 250.051L939.987 247.43C942.098 250.341 943.294 253.604 943.978 256.944ZM921.061 246.546C913.826 245.847 907.178 250.807 906.37 259.165C905.786 265.215 908.533 270.013 912.818 272.567C911.925 270.089 911.715 267.047 911.992 264.178C912.812 255.695 919.535 250.616 926.894 251.327C928.267 251.46 929.683 251.786 930.832 252.274C928.683 249.108 925.178 246.944 921.061 246.546ZM959.003 264.25C957.726 277.473 967.113 287.822 980.21 289.088C993.308 290.353 1004.5 281.992 1005.78 268.77C1007.06 255.547 997.671 245.197 984.573 243.932C971.475 242.667 960.281 251.028 959.003 264.25ZM968.109 265.13C968.959 256.336 975.905 250.901 983.826 251.666C991.747 252.431 997.524 259.096 996.674 267.89C995.825 276.684 988.878 282.119 980.958 281.354C973.037 280.589 967.259 273.924 968.109 265.13ZM1012.34 273.81C1013.13 265.702 1009.9 259.977 1006.37 256.803L1003.42 254.125C1005.86 258.139 1007.28 262.997 1006.72 268.86C1005.38 282.644 993.717 291.337 980.12 290.023C977.126 289.734 974.056 288.934 971.527 287.745L973.39 289.31C977.845 293.045 981.244 294.35 985.953 294.805C999.425 296.106 1011.02 287.469 1012.34 273.81ZM983.736 252.601C976.501 251.902 969.852 256.863 969.045 265.22C968.46 271.27 971.207 276.068 975.493 278.623C974.599 276.144 974.389 273.102 974.667 270.233C975.486 261.751 982.209 256.672 989.569 257.383C990.941 257.515 992.357 257.841 993.506 258.33C991.357 255.163 987.852 252.999 983.736 252.601ZM1054.89 273.578C1053.98 282.995 1047.16 287.121 1038.99 286.332L1033.32 285.783L1036.06 257.343L1041.74 257.891C1049.91 258.68 1055.81 264.035 1054.89 273.578ZM1064 274.395C1065.34 260.549 1056.57 251.644 1042.41 250.276L1027.82 248.866L1023.6 292.525L1038.19 293.935C1052.35 295.302 1062.66 288.304 1064 274.395ZM1030.28 298.332L1043.94 299.652C1058.53 301.062 1069.18 293.843 1070.57 279.436C1071.36 271.265 1069.36 265.91 1064.93 262.209L1061.26 259.147C1064.47 263.108 1065.54 268.248 1064.94 274.485C1063.54 289.018 1052.82 296.292 1038.1 294.87L1024.7 293.575L1030.28 298.332ZM1052.22 264.758C1050.03 261.336 1046.2 259.266 1041.65 258.826L1036.91 258.368L1034.34 284.938L1040.39 285.523L1042.56 263.132L1047.48 263.608C1049.17 263.771 1050.71 264.108 1052.22 264.758ZM1081.83 298.15L1109.21 300.796L1109.94 293.187L1091.54 291.409L1092.42 282.303L1107.39 283.749L1108.13 276.14L1093.16 274.694L1094.29 262.968L1112.13 264.692L1112.87 257.083L1086.05 254.491L1081.83 298.15ZM1095.14 263.994L1094.19 273.849L1100.24 274.433L1100.78 268.758L1118.62 270.481L1119.37 262.685L1113.73 257.859L1112.98 265.718L1095.14 263.994ZM1082.92 299.2L1088.51 303.958L1115.7 306.585L1116.45 298.789L1110.81 293.963L1110.05 301.822L1082.92 299.2ZM1093.27 283.329L1092.57 290.564L1098.62 291.148L1098.92 288.092L1113.88 289.538L1114.64 281.742L1109 276.917L1108.24 284.775L1093.27 283.329ZM1151.23 282.822C1149.93 296.232 1159.53 306.413 1172.44 307.66C1182.98 308.678 1192.68 303.384 1196.42 293.987L1186.81 293.059C1183.96 297.882 1178.67 300.456 1173.18 299.926C1165.45 299.179 1159.47 292.621 1160.33 283.702C1161.2 274.783 1168.32 269.491 1176.05 270.238C1181.54 270.768 1186.23 274.307 1188.12 279.588L1197.72 280.516C1195.85 270.577 1187.34 263.523 1176.8 262.504C1163.89 261.257 1152.52 269.413 1151.23 282.822ZM1178.18 313.377C1188.53 314.377 1198.37 309.032 1202.82 299.453L1197.12 294.559C1192.97 304.231 1182.82 309.608 1172.35 308.596C1169.35 308.306 1165.79 307.333 1163.75 306.317L1165.62 307.882C1170.07 311.618 1173.47 312.922 1178.18 313.377ZM1198.88 281.572L1189.46 280.662L1195.04 285.481L1204.46 286.391C1203.36 280.808 1201.05 277.374 1197.91 274.679L1194.89 272.058C1197 274.969 1198.19 278.232 1198.88 281.572ZM1175.96 271.174C1168.73 270.475 1162.08 275.435 1161.27 283.793C1160.69 289.842 1163.43 294.64 1167.72 297.195C1166.82 294.716 1166.61 291.674 1166.89 288.805C1167.71 280.323 1174.43 275.244 1181.79 275.955C1183.17 276.088 1184.58 276.413 1185.73 276.902C1183.58 273.736 1180.08 271.571 1175.96 271.174ZM1214.91 311.009L1223.89 311.876L1225.5 295.286L1241.09 296.792L1239.49 313.383L1248.47 314.25L1252.69 270.592L1243.7 269.724L1241.82 289.183L1226.23 287.677L1228.11 268.217L1219.13 267.35L1214.91 311.009ZM1240.58 314.433L1246.16 319.19L1254.96 320.04L1259.19 276.194L1253.55 271.368L1249.31 315.276L1240.58 314.433ZM1240.06 297.638L1226.34 296.312L1224.74 312.902L1216.01 312.059L1221.59 316.816L1230.38 317.665L1231.99 301.075L1239.66 301.816L1240.06 297.638ZM1234.62 273.82L1228.98 268.994L1227.26 286.832L1233.31 287.416L1234.62 273.82ZM1271.56 316.481L1298.94 319.127L1299.67 311.518L1281.27 309.74L1282.15 300.634L1297.12 302.08L1297.86 294.471L1282.89 293.025L1284.02 281.299L1301.86 283.023L1302.59 275.414L1275.77 272.822L1271.56 316.481ZM1284.87 282.325L1283.91 292.18L1289.96 292.764L1290.51 287.089L1308.35 288.812L1309.1 281.016L1303.46 276.19L1302.7 284.049L1284.87 282.325ZM1272.65 317.531L1278.24 322.289L1305.43 324.916L1306.18 317.12L1300.54 312.294L1299.78 320.153L1272.65 317.531ZM1283 301.66L1282.3 308.895L1288.35 309.479L1288.64 306.423L1303.61 307.869L1304.37 300.073L1298.73 295.248L1297.97 303.106L1283 301.66ZM1320.16 321.177L1329.14 322.045L1330.64 306.577L1344.98 307.963L1345.72 300.354L1331.37 298.968L1332.63 285.995L1350.15 287.689L1350.89 280.08L1324.38 277.518L1320.16 321.177ZM1331.48 307.603L1329.99 323.071L1321.26 322.227L1326.84 326.985L1335.63 327.834L1337.13 312.367L1351.47 313.753L1352.23 305.956L1346.59 301.131L1345.83 308.989L1331.48 307.603ZM1333.47 287.021L1332.4 298.123L1338.45 298.708L1339.12 291.785L1356.64 293.478L1357.4 285.682L1351.76 280.856L1351 288.715L1333.47 287.021Z" fill="black"/>
<path d="M1600.83 304.228L1593.6 303.529L1580.93 331.642L1574.95 301.728L1565.59 300.824L1575.91 345.887L1583.14 346.586L1595.85 317.974L1602.85 348.49L1610.08 349.189L1628.83 306.934L1619.48 306.03L1607.88 334.245L1600.83 304.228ZM1604.13 349.558L1609.71 354.315L1616.39 354.96L1635.29 312.405L1629.59 307.574L1610.68 350.191L1604.13 349.558ZM1595.57 320.906L1583.74 347.587L1577.19 346.955L1582.77 351.712L1589.44 352.357L1598.16 332.488L1595.57 320.906ZM1581.22 328.648L1584.21 321.885L1581.24 306.994L1576.11 302.721L1581.22 328.648ZM1608.17 331.251L1610.71 325.076L1607.11 309.557L1602.05 305.29L1608.17 331.251ZM1667.74 354.759L1677.09 355.663L1663.66 310.299L1656.42 309.6L1634.56 351.553L1643.91 352.457L1647.03 346.212L1665.87 348.031L1667.74 354.759ZM1658.81 322.673L1663.72 340.27L1650.62 339.004L1658.81 322.673ZM1678.37 356.731L1669.08 355.833L1674.66 360.59L1683.9 361.482L1670.47 316.056L1664.88 311.298L1678.37 356.731ZM1665.15 348.907L1647.57 347.207L1644.44 353.453L1635.34 352.573L1640.92 357.33L1650.15 358.222L1653.27 351.977L1666.37 353.242L1665.15 348.907ZM1652.09 338.201L1659.76 338.943L1661.4 335.639L1658.57 325.23L1652.09 338.201ZM1700.9 357.963L1709.88 358.831L1713.36 322.781L1725.02 323.908L1725.76 316.299L1693.45 313.177L1692.72 320.786L1704.38 321.913L1700.9 357.963ZM1714.21 323.807L1710.72 359.857L1701.99 359.013L1707.58 363.77L1716.37 364.62L1719.85 328.57L1731.52 329.697L1732.27 321.901L1726.63 317.075L1725.87 324.934L1714.21 323.807ZM1703.35 322.758L1693.81 321.836L1699.4 326.594L1702.95 326.937L1703.35 322.758ZM1740.5 339.756C1739.15 353.726 1749.23 363.388 1761.77 364.599C1766.01 365.009 1770.18 364.783 1773.85 363.312L1771.8 355.874C1769.12 356.937 1766.13 357.215 1762.7 356.883C1755.34 356.172 1748.67 350.303 1749.6 340.635C1750.45 331.904 1757.15 326.382 1765.07 327.147C1768.5 327.479 1771.75 328.359 1774.01 329.773L1777.44 322.928C1773.86 320.883 1770 319.817 1765.63 319.395C1753.34 318.208 1741.81 326.159 1740.5 339.756ZM1764.98 328.083C1757.56 327.366 1751.33 332.555 1750.54 340.726C1749.88 347.524 1753.19 352.314 1757.82 354.587C1756.48 352.191 1755.83 349.169 1756.17 345.676C1756.97 337.381 1763.02 332.111 1771.19 332.9C1774.43 333.214 1777.56 334.082 1780.25 335.476L1783.84 328.331L1778.13 323.562L1774.38 331.131C1771.65 329.42 1768.28 328.402 1764.98 328.083ZM1774.93 363.857C1770.48 365.63 1765.98 365.951 1761.68 365.535C1758.18 365.197 1754.79 364.492 1751.35 362.271L1754.84 365.252C1758.45 368.308 1762.08 369.792 1767.51 370.316C1771.69 370.72 1776.12 370.456 1780.5 368.739L1778.61 361.631L1773.08 356.942L1774.93 363.857ZM1794.56 367.012L1803.54 367.88L1805.14 351.289L1820.73 352.796L1819.13 369.386L1828.11 370.254L1832.33 326.595L1823.35 325.727L1821.47 345.187L1805.88 343.68L1807.76 324.221L1798.77 323.353L1794.56 367.012ZM1820.22 370.436L1825.81 375.193L1834.6 376.043L1838.84 332.197L1833.2 327.372L1828.96 371.28L1820.22 370.436ZM1819.71 353.641L1805.99 352.315L1804.38 368.906L1795.65 368.062L1801.23 372.819L1810.03 373.669L1811.63 357.079L1819.3 357.82L1819.71 353.641ZM1814.26 329.823L1808.62 324.997L1806.9 342.835L1812.95 343.42L1814.26 329.823ZM1873.01 374.591L1881.99 375.459L1884.64 348.017L1902.76 377.466L1909.37 378.105L1913.59 334.446L1904.6 333.578L1901.96 360.958L1883.83 331.571L1877.22 330.933L1873.01 374.591ZM1904.22 378.552L1909.81 383.309L1915.86 383.894L1920.09 340.048L1914.45 335.222L1910.21 379.131L1904.22 378.552ZM1882.83 376.485L1874.1 375.642L1879.68 380.399L1888.48 381.248L1890.59 359.419L1885.31 350.851L1882.83 376.485ZM1901.29 358.124L1901.54 355.504L1889.71 336.546L1886.1 333.49L1901.29 358.124ZM1931.44 358.204C1930.16 371.427 1939.55 381.776 1952.65 383.042C1965.75 384.307 1976.94 375.946 1978.22 362.724C1979.5 349.501 1970.11 339.152 1957.01 337.886C1943.91 336.621 1932.72 344.982 1931.44 358.204ZM1940.55 359.084C1941.4 350.29 1948.34 344.855 1956.27 345.62C1964.19 346.385 1969.96 353.05 1969.11 361.844C1968.26 370.638 1961.32 376.073 1953.4 375.308C1945.48 374.543 1939.7 367.878 1940.55 359.084ZM1984.78 367.765C1985.57 359.656 1982.34 353.931 1978.81 350.757L1975.86 348.08C1978.3 352.093 1979.72 356.951 1979.16 362.814C1977.82 376.598 1966.16 385.291 1952.56 383.977C1949.57 383.688 1946.5 382.888 1943.97 381.699L1945.83 383.264C1950.28 387 1953.68 388.304 1958.39 388.759C1971.86 390.06 1983.46 381.424 1984.78 367.765ZM1956.17 346.556C1948.94 345.857 1942.29 350.817 1941.48 359.174C1940.9 365.224 1943.65 370.022 1947.93 372.577C1947.04 370.098 1946.83 367.056 1947.11 364.187C1947.93 355.705 1954.65 350.626 1962.01 351.337C1963.38 351.469 1964.8 351.795 1965.95 352.284C1963.8 349.118 1960.29 346.953 1956.17 346.556ZM2031.75 345.863L2024.52 345.164L2011.86 373.276L2005.87 343.362L1996.52 342.458L2006.83 387.521L2014.06 388.22L2026.78 359.609L2033.77 390.124L2041.01 390.823L2059.76 348.569L2050.4 347.665L2038.8 375.879L2031.75 345.863ZM2035.06 391.192L2040.64 395.95L2047.31 396.595L2066.22 354.04L2060.52 349.208L2041.6 391.825L2035.06 391.192ZM2026.49 362.54L2014.66 389.222L2008.11 388.589L2013.7 393.347L2020.37 393.991L2029.09 374.122L2026.49 362.54ZM2012.15 370.282L2015.13 363.52L2012.16 348.628L2007.03 344.356L2012.15 370.282ZM2039.09 372.886L2041.64 366.711L2038.04 351.191L2032.97 346.925L2039.09 372.886ZM2079.88 350.513L2079.03 359.37L2077.99 381.806L2084.73 382.457L2088.01 360.237L2088.86 351.381L2079.88 350.513ZM2080.08 395.354C2083.45 395.68 2085.23 394.215 2085.56 390.784C2085.89 387.354 2084.43 385.576 2081.06 385.25C2077.69 384.925 2075.91 386.39 2075.58 389.82C2075.25 393.25 2076.72 395.029 2080.08 395.354ZM2086.6 387.863L2091.15 388.303L2094.56 365.403L2095.37 357.045L2089.73 352.157L2088.94 360.39L2085.51 383.477L2079.15 382.862L2080.65 384.267L2081.15 384.315C2083.96 384.586 2085.68 385.696 2086.29 387.833C2086.53 388.611 2086.6 389.814 2086.49 390.937C2086.1 394.991 2083.98 396.738 2079.99 396.352C2079.68 396.322 2079.31 396.223 2079.01 396.069L2083.7 400.236C2084.35 400.739 2085.13 401.067 2086.01 401.152C2089.69 401.507 2091.74 399.817 2092.12 395.887C2092.31 393.892 2091.82 392.459 2090.6 391.397L2086.6 387.863Z" fill="black"/>
<path d="M820.982 197.587C821.359 195.859 823.896 196.104 823.935 197.873L824.258 212.712C824.676 231.874 838.169 248.254 856.896 252.332L871.4 255.49C873.129 255.867 872.883 258.405 871.114 258.443L856.275 258.767C837.113 259.184 820.734 272.677 816.655 291.405L813.497 305.908C813.12 307.637 810.583 307.392 810.544 305.622L810.221 290.783C809.803 271.621 796.31 255.242 777.582 251.164L763.079 248.005C761.35 247.629 761.596 245.091 763.365 245.052L778.204 244.729C797.366 244.311 813.745 230.818 817.824 212.091L820.982 197.587Z" fill="#E35B5B"/>
<path d="M1458.42 257.92C1458.79 256.191 1461.33 256.437 1461.37 258.206L1461.69 273.045C1462.11 292.207 1475.6 308.586 1494.33 312.665L1508.84 315.823C1510.56 316.2 1510.32 318.737 1508.55 318.776L1493.71 319.099C1474.55 319.517 1458.17 333.01 1454.09 351.737L1450.93 366.241C1450.56 367.97 1448.02 367.724 1447.98 365.955L1447.66 351.116C1447.24 331.954 1433.75 315.575 1415.02 311.496L1400.51 308.338C1398.79 307.961 1399.03 305.424 1400.8 305.385L1415.64 305.062C1434.8 304.644 1451.18 291.151 1455.26 272.423L1458.42 257.92Z" fill="#82D965"/>
</svg>
