<svg width="57" height="57" viewBox="0 0 57 57" fill="none" xmlns="http://www.w3.org/2000/svg">
<g filter="url(#filter0_d_88_232)">
<rect x="2" y="2" width="49" height="49" fill="#02FF75"/>
<rect x="1" y="1" width="51" height="51" stroke="black" stroke-width="2"/>
</g>
<path d="M44.48 8H9.52C8.67925 8 8 8.67925 8 9.52V44.48C8 45.3208 8.67925 46 9.52 46H44.48C45.3208 46 46 45.3208 46 44.48V9.52C46 8.67925 45.3208 8 44.48 8ZM37.2267 21.7608C37.241 21.984 37.241 22.2168 37.241 22.4447C37.241 29.4177 31.9305 37.45 22.2262 37.45C19.2337 37.45 16.4597 36.5807 14.1227 35.0845C14.5502 35.132 14.9588 35.151 15.3958 35.151C17.8658 35.151 20.1363 34.315 21.946 32.8995C19.628 32.852 17.6805 31.332 17.0155 29.242C17.8277 29.3608 18.5592 29.3608 19.3952 29.147C18.2017 28.9045 17.1289 28.2563 16.3591 27.3125C15.5893 26.3686 15.1701 25.1874 15.1725 23.9695V23.903C15.8707 24.2972 16.6925 24.5395 17.5522 24.5728C16.8295 24.0911 16.2368 23.4385 15.8266 22.6729C15.4165 21.9073 15.2016 21.0523 15.201 20.1838C15.201 19.2005 15.4575 18.3027 15.9183 17.5238C17.243 19.1546 18.8962 20.4884 20.7702 21.4385C22.6442 22.3886 24.6972 22.9338 26.7957 23.0385C26.05 19.4523 28.729 16.55 31.9495 16.55C33.4695 16.55 34.8375 17.1865 35.8017 18.2125C36.994 17.9893 38.134 17.5427 39.1505 16.9442C38.7562 18.165 37.9298 19.1957 36.8325 19.8465C37.8965 19.7325 38.9225 19.438 39.8725 19.0247C39.1552 20.0793 38.2575 21.015 37.2267 21.7608Z" fill="black"/>
<defs>
<filter id="filter0_d_88_232" x="0" y="0" width="57" height="57" filterUnits="userSpaceOnUse" color-interpolation-filters="sRGB">
<feFlood flood-opacity="0" result="BackgroundImageFix"/>
<feColorMatrix in="SourceAlpha" type="matrix" values="0 0 0 0 0 0 0 0 0 0 0 0 0 0 0 0 0 0 127 0" result="hardAlpha"/>
<feOffset dx="4" dy="4"/>
<feComposite in2="hardAlpha" operator="out"/>
<feColorMatrix type="matrix" values="0 0 0 0 1 0 0 0 0 1 0 0 0 0 1 0 0 0 1 0"/>
<feBlend mode="normal" in2="BackgroundImageFix" result="effect1_dropShadow_88_232"/>
<feBlend mode="normal" in="SourceGraphic" in2="effect1_dropShadow_88_232" result="shape"/>
</filter>
</defs>
</svg>
